<svg xmlns="http://www.w3.org/2000/svg" xml:space="preserve" viewBox="-15 0 139 139">
  <style>
    .st0{fill-rule:evenodd;clip-rule:evenodd}.st0,.st1{fill:#6b2364}
  </style>
  <path d="M0 3.1c6.9 4 15.9 6.8 26.7 6.9 11.1.2 20.5-2 27.3-6.3C60.9 8 70.4 10.2 81.3 10c10.6-.1 20-2.9 26.7-6.9.1 15.9-.2 31.1-.2 47 0 15.7.8 32.1-3.2 44.1-2 5.9-4.9 10.9-8.3 15.5-3.3 4.6-7.4 8.6-11.7 12-4.5 3.5-9.8 5.9-15.1 8.6-4.6 2.3-9.2 4.7-13.6 7.1-.6.3-1.4.6-1.8 1.2-2.4-1.6-5-2.9-7.6-4.3-2.6-1.3-5.3-2.7-7.9-4.1-2.7-1.4-5.4-2.6-8-3.9-2.6-1.4-4.9-2.9-7.2-4.7-9-6.9-15.9-15.7-20-27.5-2-6.1-2.6-13-3-20.6C0 66 .2 58.1.2 50.4.2 34.6 0 19.2 0 3.3v-.2zm51.3 5.7C41.9 12.9 27 14.2 15 11.7 11.2 11 7.8 9.9 4.8 8.6c-.4-.2-.9-.6-1.3-.5-.1 14.7.2 29.9.2 44 0 7.3-.4 14.8-.1 21.8.3 7 1.1 13.6 3 19.2s4.4 10.4 7.5 14.7c4.7 6.5 10.3 12 17.5 15.8 2.4 1.3 5 2.4 7.5 3.6 5 2.3 10 4.8 15 7.2 5-2.5 10-4.8 15-7.2 2.6-1.2 5.1-2.3 7.5-3.6 4.8-2.5 8.8-5.9 12.4-9.7 5.4-5.7 9.8-12.7 12.4-20.9 3.7-11.5 3-26.1 3-40.9 0-14.9 0-29.5.2-44.1-.5 0-.9.3-1.3.5-3.1 1.4-6.4 2.5-10.2 3.2-8.8 1.7-19.5 1.4-27.7-.4-4.2-.9-8-2.3-11.3-4-.7.6-1.7 1-2.8 1.5z" class="st0"/>
  <path d="M55.2 13.4c4.6.5 8.1 2.9 10.2 6.4.3.5.7 1.2.7 1.5-.1.4-.3.7-.7.7-.5 0-.6-.7-.9-1.2-1.8-3.1-4.6-5.2-8.7-5.9.2.9.6 1.9 1 2.8.3 1 .7 2 1 2.9.2.2 0 .4 0 .6.7-.1 1.6 0 1.4.8-.2 1.1-3.3.3-4.5.5-.1.8 0 1.9-.1 2.8.6.4 3.7-.3 4.3.1.2.1.3.5.2.7-.2 1.2-3.3.2-4.5.5-.2 1 .3 2.3-.7 2.4-.9.1-.7-1.2-.7-2.3-1.2-.4-4.3.6-4.6-.5-.3-1.6 3.4-.4 4.5-.9.1-.8.1-2 0-2.8-1-.4-4.3.5-4.5-.5-.2-.8.6-.9 1.4-.9.2-.2-.1-.3 0-.6.8-1.9 1.4-3.9 2.1-5.7-5 .7-8.1 3.7-9.6 7.9.5 0 1.4-.3 2.4-.5 1.1-.2 3.4-.7 2.8.9-.9.3-2 .3-3 .5-.9.2-1.8.5-2.6.8-.2.3-.2.7-.2 1.1.8-.1 1.7-.5 2.8-.7.8-.1 3.2-.7 3 .6-.1.6-.8.5-1.3.5-1.4.1-3.3.6-4.3 1.1 0 .2 0 .7.1.9.9-.2 1.6-.4 2.8-.6.8-.1 2.6-.6 2.7.2.2 1.2-1.9.9-2.9 1-1.1.2-1.8.5-2.4.7.2.6.3 1.3-.3 1.4-1.2.3-1.3-2.5-1.3-3.6 0-1.7.2-3.2.5-4.3 1.5-5.2 5.6-8.6 11.6-9.5.4-.6.4-1.9 1.3-1.8.7.2.6 1.4 1 2zm-.4 2.7c-.2-.5-.4-1.6-.9-1.5-1 2-1.6 4.4-2.5 6.5h1.9c-.4-1.9 1.8-2.1 1.4 0h2c-.6-1.4-1.3-3.4-1.9-5zm-28 2.3c.3.2-.1.6.1.8.8-.2 1.9.5 2 .9.1.6-.5 1.2-.4 2 1.4.9 1.8 2.9 3.4 3.6.7 1.3 1.2 3.3.9 5.1-.2 1.4-1.6 1.5-1.3 3.3.1.8.6 2.4 1.2 2.6.4.2.9 0 1.2.2.3.4.2 1.1-.1 1.5-1.1.2-1.5 1.4-2.9.9-.5-.2-1.4-.8-1.7-1.2-.2-.3-.2-.7-.3-1-.3-.7-.8-1-1.1-1.5-.8.3-3.4-.2-3 1.2.2.6 2.2.3 1.6 1.8-.2.5-2 1.3-2.7 1.4-.2 0-.7.1-.8.1-.2 0-.4-.2-.7-.3-.6-.1-1.3.1-1.9 0-.4-.1-1.4-.8-1.7-1.1-.2-.2-.7-.8-.8-1-.3-.6-.1-1.2-.8-1.4-.3-.1-.7-.1-1-.2-.6-.2-1.3-.7-1.8-.3-.6.7.4 1 .7 1.6.3.6.1 1 .2 1.8-.2.3-.6.8-1.2.9-.7.1-1.6-.4-2.6-.6-.6-.2-1.6-.2-1.7-.8-.1-.4.3-.6.4-1 0-.4-.3-.7 0-1.1-.4-.7-.2-1.7-.3-2.9 0-1.3 0-2.2.3-3.2.1-.3.1-.7.2-.9.2-.4 1.4-1.4 1.8-1.6 1.1-.6 2.9-1.1 4.8-.8.4 0 .8.4 1.2.5.7.1 1.7-.1 2.5 0 .2-.1.4-.3.6-.5.1-1.3-.6-1.7-1-2.6.2-1.3-.2-2.7.2-3.9.1-.3.7-1.3 1-1.6.3-.3.9-.8 1.3-.9.7-.1 1.8.3 2.4.5.5-.5 1.3-.5 1.8-.3zM23.4 21c.6.1.8-.6 1.1-.9-.2-.3-.1-.8-.5-.8 0 .8-.4 1.2-.6 1.7zm-2.1-.2c.1.1.2.1.4.1.1-.3.2-.8.4-1.1-.5-.2-.9.6-.8 1zm3.6.2c-.5.4-1.5.8-1.2 1.7h.1c.7-.2.8-.9 1.3-1.3.4-.3 1.2-.6 1.1-1.4-.6-.2-.9.6-1.3 1zm0 2.7.1.1c.2.1.4-.1.6-.1.5 0 .8.2 1.1.2.3-.3 0-.8-.3-.8-.3.6-1.7-.5-1.5.6zm3.7-.6c-.3 0-.4.3-.4.5 0 .4.8.8 1.2.8-.2-.2-.5-1.3-.8-1.3zm-5 .9c-.5.2-.7.6-.9 1.1.4.2.5-.4.8-.4.4.2.4.8.8 1 .1.2.6-.1.6.2 0 .3-.5.3-.8.5-.3.2-1 .7-1.5 1-.9.5-2.1 1.2-.8 1.8.1-.1 0-.4.1-.5.1-.3 1.2-1.1 1.4-1.1.2 0 .5.1.7.1.6-.1.7-.7 1.3-.9.3.1.7.1 1.1.1.5.2.2 1.2.9 1.3.3-.4.1-.9.4-1.3-.1-.4-.4-.5-.4-.9.1-.2.4-.3.6-.4.5.4.4 1.4 1 1.8.5-.3.6-1.3.3-1.8-.3-.4-1-.6-1.2-.9-1.3 0-2.4.3-3.4.7-.5-.5-.6-1.1-1-1.4zm6.6 3.7c.4-.2.2-1.1-.3-1.2-.2.3-.2 1.2.3 1.2zm-5.4.5c.1.3.6.2.7.6-.2.6.4 1 .5 1.5-.3.5-.9 0-1-.3-.3 0-.4.2-.4.5 1.3.1.6 1.6-.2 1.9-.2.1-.6 0-.9.1-.3.1-.6.4-1 .6-.5.2-1.1 0-1.4.3-.2.7-.1 1.5.4 1.5s.5-1 1-1.2c.7.1.6-.5 1-.6.2-.1.5.1.7 0 .8-.2 1-1.3 1.5-1.9 1.3.2 1.6-1 1.7-1.9-.7.1-1.6.2-1.7-.4-.1-.5.4-.7.5-1.1-.4-.6-1.3-.1-1.4.4zm-10.8.2c-.3 0-.2-.3-.5-.2 0 .4-.4.4-.5.7.1.3.5.3.6.6.9 0 1.2-.7 2-.8-.2-1.2-1-.7-1.6-.3zm2.9-.4c-.2.3 0 .9.3 1 .6-.2.4-1.1-.3-1zm3 2.3c.2-.3.1-1-.3-1-.2.2-.3 1.1.3 1zm-9.3.6c.4.2 1.2.3 1.5-.1-.2-.4-.2-.7-.2-1.1-.6.3-1.1.6-1.3 1.2zm9.6.3c.5.1 1.4.2 1.5-.3-.3-.6-1.6-.6-1.5.3zm-6.6 1.1c-.3 0-.2-.3-.4-.3-.3 0-.3.4-.6.4-.1 0-.2-.1-.4-.1-.1.1-.3.2-.3.5.3-.1.4-.1.6.1.1-.1.1-.3.3-.3 0 .9-.6 1.7-1.6 1.8-.1.5-.4.7-.7.9-.2 1.1.1 2 1.1 2 .1-.2.1-.5.1-.8-.3-.3-.6-.6-.5-1.3.2-.1.4-.2.7-.2.4-.4.8-.9 1.1-1.5-.2-.6.5-1.1.8-.6 0 .2-.2.5.1.5.2-.1 0-.2 0-.4.3-.4.9-.4 1.1-.9-.4-.7-.9 0-1.4.2zm-2.7 1.1c.3-.3.4-.9.2-1.4-.6 0-.7 1.1-.2 1.4zm7.4.1c0 .2.5.1.6.1 0-.1 0-.1.1-.2-.1-.1-.3-.2-.4-.3 0 .3-.4.2-.3.4zm4.9.7c-.2.1-.5.2-.6.4-.1.4.1 1.1-.2 1.2-.6-.4-1-.1-1.3.3-.3-.1-.4-.3-.8-.2 0 .2-.2.9.1.9.3-.1-.2-.6.2-.6.1.3.3.5.5.7 0 .4-.2 1.3.1 1.6.7-.2 0-1.7.9-1.8.3.2.2.7.2 1.1.2.1.5.5 1 .5.5.1 1.3-.1 1.5-.5-.3-.2-.8-.2-1-.5-.1-.1-.1-.3-.1-.4-.6-.4-.8-1.4-.6-2.2.1-.3.7-.7.2-1-.2.1-.1.3-.1.5zm-10.8 3.4v.2c.5-.1.6.6 1.1.4-.2-.5-.7-.8-1.1-.6zm82.7-1.7c-.6-.4-1.3.2-1.9.3-.7.2-1.3.2-1.6.8-.1.3-.1.6-.2.9-.5 1.1-1.6 1.4-2.4 2.1-.6.1-1.3-.1-2 0-.5.1-.7.4-1.4.2-1.1-.2-2.5-.9-2.8-1.5-.5-1.2.8-1.4 1.6-1.7.2-1.2-.6-1-1.6-1.1-.5-.1-1-.2-1.3-.2-.3.1-1 1-1.2 1.5-.1.3-.1.7-.2.9-.3.7-1.7 1.4-2.4 1.4-1 0-1.1-.9-2.2-1-.2-.5-.3-1.2 0-1.5.3-.2 1-.1 1.3-.4.4-.3 1.3-2.6 1-3.7-.2-.7-1.1-1.3-1.3-1.9 0-.2-.1-.7-.1-1 0-1.4 0-3.3.9-4.3.3-.4 1-.7 1.4-1.1.8-.8.9-2.2 2-2.5 0-.8-.3-1.4-.4-2 .4-.5.9-1 2-.9.2-.3-.2-.6.1-.8.5-.2 1.3-.2 1.6.1.6-.3 1.3-.4 2-.5 1.2-.2 1.9 1 2.3 1.8.3.6.6.9.7 1.8v1.5c0 .5.1 1 0 1.3-.2 1.1-1.9 2.4-.4 3.2.8-.1 1.7.1 2.5 0 .4-.1.8-.4 1.1-.5.9-.2 1.9-.1 2.6 0 1.7.2 3 1.3 4.1 2.3 0 .7.5 1.3.6 2 .2 1.2.1 3.1-.1 4.3-.1.6-.3 1.2-.1 2 .1.4.4.6.4.9-.1.8-1 .8-1.8 1-1.5.4-3 1.1-3.6-.3 0-.9-.1-1.3.2-1.9.2-.5 1.1-.7.6-1.5zM85.8 21c0-.4-.4-.5-.5-.8-.1-.3.1-.7-.2-1-.7.6-.1 2 .7 1.8zm1.7-.1c.2 0 .4 0 .4-.1-.1-.5-.3-.9-.7-1-.1.2.3.6.3 1.1zm-4.6-.9c0 1 .9 1 1.4 1.6.4.4.5 1 1 1.1.6-.7-.5-1.5-1.1-1.8-.3-.4-.6-1.1-1.3-.9zM81 23.5c0-.1-.2-.4-.4-.4-.3 0-.7 1.2-.7 1.3.4.1 1.1-.5 1.1-.9zm2.4-.2c-.3 0-.6-.3-.8-.2-.3.1-.6.7-.1.8.3-.2 1.2-.4 1.6 0 .4-.2.2-.6-.1-.8-.3 0-.3.2-.6.2zm2.3.7c-.6.3-.6 1.1-1.2 1.3-1-.4-2-.6-3.4-.7-.2.4-1.1.6-1.3 1.1-.2.5 0 1.3.3 1.7.7-.3.8-2.7 1.7-1.4-.1.3-.3.5-.4.9.4.3.2.8.4 1.2.7 0 .4-1 .9-1.2.4-.1.8-.1 1.2-.2.6.4 1 1.1 2 .8.5.5 1.5.7 1.4 1.7.4 0 .7-.5.7-.7 0-.5-1.2-1-1.8-1.3-.3-.2-.6-.5-.9-.6-.4-.2-.9-.2-1-.6 0-.2.4-.1.6-.1.4-.2.4-.9.9-1 .3.1.4.6.7.4-.1-.6-.4-1.1-.8-1.3zm-7 3.4c.4.7.9-.3.6-.9-.5 0-.5.5-.6.9zm4.3.4c.2.4.5.6.5 1.1-.2.6-1.2.4-1.8.4.1.8.3 2.1 1.7 1.8.5.7.8 1.5 1.5 1.9 1-.4.9.6 1.8.6.5.2.5 1.1 1 1.2.6 0 .6-1 .4-1.6-.5-.2-.9 0-1.5-.2-.2-.1-.4-.4-.7-.5-.4-.1-.8 0-1.2-.1-.5-.2-.9-.9-.9-1.6.1-.3.6-.1.7-.5 0-.2-.2-.3-.3-.3-.2.3-.8.8-1.1.2.2-.5.6-.8.5-1.6.1-.2.6-.1.6-.5.1-.5-.8-.9-1.2-.3zm10.5.8c.8.2 1.1.8 2 .8.1-.3.6-.3.6-.6-.2-.2-.5-.2-.5-.7-.3-.1-.3.3-.6.2-.5-.4-1.2-.7-1.5.3zM92 29c.3-.2.5-.6.3-1-.7-.1-.9.8-.3 1zm-2.6.3c-.3.2-.4.8-.2 1 .6.2.7-.9.2-1zm7.7 1.6c.4.2 1.1.1 1.5.1-.2-.7-.7-1-1.3-1.2 0 .3-.1.7-.2 1.1zm-9.6.1c.2.3 1 .3 1.4.2.2-.9-1.3-.9-1.4-.2zm6.6 1.2c.3.4.8.5 1.1.8 0 .1-.1.3 0 .4.4 0 .1-.3.1-.5.9-.6.8.9 1.1 1.4.3.4.6.4.7.7.2 0 .5.1.6.1.5.9-.8 1.3-.3 2.2 1.3.2 1.5-2.1.5-2.5 0-.2-.1-.3-.1-.4-1-.1-1.7-1.1-1.6-1.9.2.4.5.1.9.3 0-.2-.2-.4-.4-.5-.2 0-.2.1-.4.1-.2-.1-.3-.3-.5-.4-.3 0-.2.3-.5.3-.2-.3-.8-.8-1.2-.1zm4.3 1.1c.3-.3.2-1.3-.3-1.3-.3.4-.2 1.2.3 1.3zm-8.2.2c.1.1.4.1.6.1 0-.1 0-.1.1-.2-.2-.1-.6-.5-.7.1zm-4.1 1.2c-.1.6 0 1-.1 1.6-.3.3-.6.5-.6 1-.3.3-.9.2-1.1.6.7.4 2 .4 2.5-.2.1-.4-.1-1 .3-1.1.7.2.1 1.6.8 1.8.2-.4.1-1.3 0-1.6.3-.2.3-.6.6-.7 0 .2-.1.6.1.6.2-.1.2-.7.1-.9-.5-.1-.5.2-.9.2-.2-.6-.8-.6-1.3-.3-.2-.4-.1-.7-.1-1.3-.4-.2-.6-.6-.7-.9-.1.7.3 1 .4 1.2zm9.6 3.5c.4-.1.7-.3 1-.6-.3-.2-1 .1-1 .6z" class="st0"/>
  <path d="M65.4 22.9c.4-.1.5-.5.9-.4.7.1.9 2 1 3 .1 1.7 0 6.3-1.7 4.8 0-.4 0-.6.1-.9-.8-.5-2.4-.8-3.9-1-.7-.1-1.7 0-1.4-.9.2-.8 2-.3 2.8-.2 1.1.2 1.8.4 2.7.6.2-.1.1-.6.2-.9-.7-.5-3-1.1-4.4-1.2-.7-.1-1.5 0-1.5-.7 0-.3.3-.4.5-.6 2.1 0 3.8.4 5.3 1 .4-1.5-1.5-1.6-2.6-1.9-1.1-.2-2.2-.3-3-.4-.5-.2-.5-1.2.3-1.2 1.3 0 3.8.5 4.7.9zm-8.8 16.4c-1.3-1.7 2.8-1.5 3.3-2.4-.6-.3-1.4-.4-2.1-.5-.8-.1-1.6-.2-2.3-.2.1 1.2.6 3.1-.7 3.5-.9.2-3.6 0-3.7-.6-.3-1.4 2.1-.5 3.1-.6.3-.6 0-1.7-.2-2.2-2-.3-4 .1-5.7.5.5.8 2 .6 2.1 1.4.3 1.7-2.7 0-3.1-.3-1.6-.9-2.8-2-4-3.6-.5-.6-1.4-1.8-1.3-2.4.1-.6 1.4-1 2.3-1.2 5.2-1.4 11.2-1.9 17-.8.8.2 1.7.5 2.6.8.8.2 2.2.5 2.3 1.1.1.7-1.2 2.4-1.5 2.8-1.3 1.8-2.7 2.9-4.7 3.8-1 .4-2.1.9-3.4.9zm-13-7c.8 1.5 1.9 2.6 3.1 3.6.8-.3 1.7-.5 2.7-.7-.4-.4-.9-.6-1.4-1-.4-.3-1.1-.7-1.1-1.3.1-.6 1.4-1 2.3-1.2 3-.7 6.6-.6 9.5 0 .9.2 2.4.4 2.4 1.2 0 .4-.7 1-1.1 1.3-.5.4-1.1.5-1.4 1 1.1.1 1.9.4 2.8.7 1.3-.9 2.3-2.1 3-3.6-5.4-2.3-15.2-2.2-20.8 0zm5.5 1c2.3 2 7.7 2 10 0-2.7-.9-7.4-.9-10 0z" class="st0"/>
  <path d="M15.7 73.2c0-.1-.1-.3-.1-.5-.1-.2-.1-.4-.2-.5-.1-.2-.3-.3-.6-.3s-.6-.1-1.1-.1H7.6v-.5l6.8-5.1h-4.3c-.5 0-.8 0-1.1.1-.3.1-.5.1-.6.3-.1.1-.2.3-.2.6-.1.3-.1.5-.1.5h-.4v-3.4h.4c0 .1 0 .3.1.5.1.3.1.4.2.5.1.1.3.2.5.3.2.1.6.1 1.2.1h4.1c.2 0 .4 0 .5-.1.2-.1.3-.1.4-.2l.3-.6c.1-.2.1-.4.2-.6h.4v2.4l-6.4 4.7h4c.5 0 .9 0 1.1-.1.3 0 .4-.1.5-.3.1-.1.1-.3.2-.5.1-.3.1-.5.1-.6h.4v3.4h-.2zm-7.3 9.6L8 79.3h.4c.1.3.1.6.2.7.1.2.1.3.3.3H9s.1 0 .1-.1l1.8-.9-.3-2.9c-.3-.1-.5-.2-.7-.2-.2-.1-.4-.1-.6-.1-.2 0-.3 0-.4-.1h-.3c-.2 0-.3.1-.3.4-.1.3-.1.5-.1.8h-.4L7.5 74h.4c0 .1.1.2.1.4.1.1.1.3.2.3.1.2.2.3.4.3.1.1.3.1.5.2 1.1.3 2.3.6 3.7 1 1.4.4 2.6.7 3.6 1v.5l-6.9 3.5c-.1.1-.3.1-.4.2 0 .4-.1.5-.2.6 0 .1-.1.2-.1.4v.4h-.4zm3-3.7 3.1-1.6-3.4-.9.3 2.5zm6.9 12.4c0-.1-.1-.3-.2-.5s-.2-.3-.3-.4c-.1-.1-.3-.2-.6-.2s-.6.1-1.1.2l-6 1.3-.1-.5 5.6-6.4-4.2.9c-.5.1-.8.2-1.1.3-.2.1-.4.3-.5.4-.1.1-.1.3-.1.6v.6l-.4.1-.8-3.4.4-.1c0 .1.1.3.2.5s.2.4.3.4c.1.1.3.2.5.2s.6 0 1.2-.2l4-.9c.2 0 .4-.1.5-.2.2-.1.3-.2.3-.3.1-.2.2-.4.2-.6v-.6l.4-.1.5 2.3-5.2 6 3.9-.9c.5-.1.8-.2 1.1-.3.2-.1.4-.2.5-.4 0-.1.1-.3.1-.6v-.6l.4-.1.7 3.3-.2.2zm2.6 5c-.1-.1-.2-.2-.2-.3l-.3-.3c-.1-.1-.2-.1-.3-.1-.1 0-.2 0-.3.1l-4.3 2.5c-.2.1-.5.2-.8.3-.3.1-.6.1-.9 0-.3-.1-.7-.2-1-.4-.3-.2-.5-.5-.7-.9-.3-.5-.4-1.1-.3-1.6.1-.5.4-.9 1-1.2.2-.1.5-.2.7-.2.2 0 .4.2.6.4.1.2.1.4.1.6 0 .2-.2.3-.3.5-.1.1-.2.1-.4.1h-1.2c-.1.1-.1.3-.1.5s.1.4.2.7c.2.3.3.4.5.5.2.1.4.1.7.1.2 0 .5-.1.8-.2.3-.1.6-.3.9-.4l3.8-2.2c.1-.1.2-.1.3-.2.1-.1.1-.2.1-.4 0-.1-.1-.3-.1-.5-.1-.2-.1-.3-.2-.4l.4-.2 1.8 3.2h-.5zM18 106l-2.3-3 .3-.3c.1.1.2.2.3.4l.3.3c.1.1.2.1.3.1.1 0 .2-.1.3-.1l4.8-3.7c.1-.1.2-.2.2-.3V99c0-.1-.1-.3-.2-.4-.1-.2-.1-.3-.2-.4l.3-.3 2.3 3-.3.3-.3-.3c-.1-.1-.2-.2-.4-.3-.1-.1-.2-.1-.4-.1-.1 0-.2.1-.3.1l-4.8 3.7c-.1.1-.2.2-.2.3 0 .1-.1.2 0 .4 0 .1.1.2.2.4s.2.3.2.4l-.1.2zm14.4 3c-.1-.1-.2-.2-.4-.3-.2-.1-.4-.2-.5-.2-.2 0-.4 0-.6.2-.2.2-.5.4-.8.7l-4.2 4.4-.4-.4 1.1-8.5-3 3.1c-.3.4-.6.6-.7.9-.1.2-.2.4-.2.6 0 .1.1.3.2.6.1.2.3.4.3.5l-.2.4-2.5-2.4.3-.3c.1.1.2.2.5.3.2.1.4.2.5.2.2 0 .4 0 .6-.2.2-.1.5-.4.8-.8l2.9-3c.1-.1.2-.3.3-.5.1-.2.1-.3.1-.5s-.1-.4-.2-.6c-.1-.2-.2-.4-.3-.5l.3-.3 1.7 1.7-1 7.9 2.7-2.9c.3-.4.6-.7.7-.9.1-.2.2-.4.2-.6 0-.1-.1-.3-.3-.5-.1-.2-.2-.4-.3-.5l.3-.3 2.5 2.3-.4.4zm4.7 8.6c-.1 0-.2-.1-.3-.2-.1-.1-.3-.1-.4-.1-.1 0-.2 0-.4.1l-.3.3-.4.5c-.3.4-.5.7-.5.8-.1.2-.2.2-.2.3-.6-.1-1.1-.2-1.6-.4s-1-.4-1.4-.7c-.4-.3-.8-.7-1.1-1.1-.3-.4-.5-.9-.6-1.4-.1-.5-.1-1.1 0-1.6.1-.6.3-1.1.7-1.7.3-.5.8-1 1.3-1.3.5-.3 1-.6 1.5-.7.5-.1 1.1-.1 1.6 0s1.1.3 1.6.7c.4.3.7.5.9.8.2.3.4.6.5.8l.4-.2.4.3-1.6 2.5-.2-.3c.1-.3.2-.6.3-1 .1-.3.1-.6.1-1 0-.3-.1-.6-.3-.9-.1-.3-.4-.5-.7-.7-.4-.2-.7-.4-1.1-.4-.4 0-.8 0-1.1.2-.4.1-.8.4-1.1.7-.4.3-.8.7-1.1 1.2-.3.4-.5.9-.7 1.4-.2.5-.2.9-.2 1.3s.1.8.3 1.2c.2.4.5.7.9.9.3.2.6.3.9.4.3.1.5.1.7.1.2-.2.3-.3.4-.5.1-.2.2-.3.3-.4l.2-.4c.1-.1.2-.3.2-.4 0-.1 0-.3-.1-.4-.1-.1-.2-.3-.4-.4-.2-.1-.3-.3-.4-.3l.2-.4 3.1 2.1-.3.3zm21 1.4c-.1 0-.3 0-.5.1-.2 0-.4.1-.5.2-.1.1-.2.3-.3.6-.1.3-.1.6-.1 1v3.6c0 .4-.1.9-.3 1.2-.2.4-.5.6-.8.9-.3.2-.6.4-1 .5-.3.1-.7.2-1 .2-.5 0-1-.1-1.3-.2-.4-.1-.7-.3-1-.5-.3-.2-.5-.5-.6-.8-.1-.3-.2-.6-.2-.9V120c0-.2 0-.3-.1-.4 0-.1-.1-.2-.3-.2-.1-.1-.2-.1-.4-.1s-.3-.1-.4-.1v-.4H53v.4h-.4c-.2 0-.3.1-.4.1-.1 0-.2.1-.3.2-.1.1-.1.3-.1.4v4.6c0 .2 0 .5.1.7.1.2.2.5.3.7.2.2.4.4.6.5.3.1.6.2 1.1.2.4 0 .8-.1 1.1-.2.3-.1.5-.3.7-.5.2-.2.3-.4.4-.7.1-.2.1-.5.1-.7v-3.4c0-.5 0-.8-.1-1.1-.1-.3-.2-.5-.3-.5-.1-.1-.3-.2-.6-.2-.2 0-.4-.1-.6-.1v-.4H58v.2zm9.8-4.2c-.1.1-.2.2-.4.3l-.4.4c-.1.1-.1.3 0 .6s.2.6.3 1l2.5 5.6-.5.2-7.4-4.3 1.7 4 .5 1c.2.2.3.4.5.4.1.1.3.1.6 0 .3 0 .5-.1.6-.1l.2.4-3.2 1.4-.2-.4c.1 0 .2-.2.5-.3.2-.2.3-.3.4-.3.1-.2.1-.4.1-.6 0-.2-.2-.6-.4-1.1l-1.7-3.8c-.1-.2-.2-.3-.3-.5-.1-.1-.3-.2-.4-.3-.2 0-.4-.1-.6-.1-.3 0-.5.1-.6.1l-.2-.4 2.2-1 6.9 4-1.6-3.7-.5-1c-.2-.2-.3-.3-.5-.4h-.6c-.2 0-.4.1-.6.1l-.2-.4 3.1-1.3.2.5zm8.3 4.8-3.4 1.7-.2-.4c.1 0 .2-.1.4-.2s.3-.2.3-.3c.1-.1.2-.2.2-.3 0-.1 0-.2-.1-.4l-2.7-5.4c0-.1-.1-.2-.2-.3-.1-.1-.2-.1-.4-.1-.1 0-.3 0-.5.1s-.3.1-.4.1l-.2-.4 3.4-1.7.2.4c-.1.1-.2.1-.4.2-.1.1-.3.2-.4.3-.1.1-.2.2-.2.4 0 .1 0 .2.1.3l2.7 5.4c.1.1.1.2.2.3.1.1.2.1.4.1.1 0 .2 0 .4-.1.2 0 .3-.1.5-.1l.3.4zm4.2-13.2-.3.3c-.1.1-.1.3-.2.4-.1.1-.1.3-.1.4 0 .1.1.3.1.5.2.7.5 1.7.9 3 .4 1.4.9 2.8 1.3 4.3l-.4.3c-1.4-.8-2.7-1.6-4-2.4-1.3-.8-2.2-1.3-2.6-1.6-.1-.1-.2-.1-.4-.1h-.4c-.1 0-.3.1-.4.1-.1.1-.2.1-.3.2l-.3-.3 2.7-2.2.3.3-.5.5c-.1.2-.2.3-.1.4l.1.1c.1 0 .1.1.1.1.3.2.9.5 1.7 1 .8.5 1.9 1.2 3.4 2-.2-.8-.5-1.6-.8-2.7-.3-1-.5-1.7-.7-2.1-.1-.4-.2-.6-.3-.7-.1-.1-.1-.2-.2-.3-.1-.1-.1-.1-.2-.1s-.2 0-.3.1c-.1.1-.3.1-.4.2-.1.1-.2.1-.3.2l-.3-.3 2.4-1.9.5.3zm9.3-2.7 1.8 1.7-4.5 5.3-.3-.3c.1-.1.2-.2.3-.4.1-.2.2-.3.2-.4v-.3c0-.1-.1-.2-.2-.3l-4.6-3.9c-.1-.1-.2-.1-.3-.2h-.4c-.1 0-.2.1-.4.2-.1.1-.3.2-.3.3l-.3-.2 4.1-5 1.5 1.3-.3.3c-.3-.1-.6-.2-1.1-.2-.4 0-.7.1-.9.2l-.3.3c-.1.1-.2.3-.4.4l-.8 1 2.5 2.1.6-.7c.2-.2.3-.4.4-.6v-.5c0-.1-.1-.3-.2-.5s-.2-.3-.3-.4l.3-.3 2.5 2.1-.3.3c-.2-.1-.3-.2-.5-.3-.2-.1-.4-.1-.5-.1-.2 0-.4 0-.5.1-.1.1-.3.2-.5.4l-.6.7 2 1.6c.2.2.3.3.5.3.1.1.3.1.4.1.1 0 .2-.1.4-.2.1-.1.3-.3.5-.6.1-.1.2-.2.3-.4.1-.1.3-.3.3-.4.1-.1.2-.3.2-.4.1-.1.1-.3.1-.3 0-.3-.1-.6-.3-1-.2-.4-.3-.7-.4-.8h.3zm7-7.8-1.1 2c-.9.1-1.7.2-2.4.3-.7.1-1.4.2-2.2.3l-.4.8 2.3 1.3c.1.1.2.1.3.1.1 0 .2 0 .4-.1.1-.1.1-.2.2-.3.1-.1.2-.3.2-.4l.4.2-1.7 3.1-.4-.2c0-.1.1-.2.2-.4s.1-.3.1-.3c0-.1 0-.2-.1-.3l-.3-.3-5.2-3c-.1 0-.2-.1-.3-.1-.1 0-.2 0-.3.1l-.3.3c-.1.1-.2.2-.2.3l-.4-.2 1.9-3.4c.2-.3.3-.6.6-.8.2-.2.5-.4.7-.6.2-.1.5-.2.8-.2.3 0 .6.1.9.2.3.2.5.3.7.5.2.2.3.4.4.7.1.2.1.5.1.8 0 .3-.1.6-.1.9.7-.1 1.3-.2 1.7-.2.5-.1 1-.2 1.7-.2.3 0 .5-.1.7-.2.2-.1.3-.1.4-.2l.3-.3c.1-.1.2-.2.2-.3l.2.1zm-7-.2c-.5-.2-.9-.3-1.3-.2-.4.1-.7.4-1 .9l-.4.8 3.2 1.7.4-.7c.3-.5.3-1 .2-1.4-.2-.5-.6-.8-1.1-1.1zm4.8-6.9c.2-.1.5-.2.7-.2.3 0 .5 0 .8.1.7.2 1.2.6 1.6 1.2.3.7.4 1.4.2 2.2-.1.3-.2.7-.4 1-.2.4-.4.6-.7.8l.4.4-.1.5-2.8-.7.1-.5c.4 0 .7 0 1-.1.3 0 .6-.1.9-.3.3-.1.5-.3.7-.6.2-.2.3-.5.4-.9.1-.3.1-.5.1-.7 0-.2-.1-.4-.2-.5-.1-.2-.2-.3-.4-.4-.2-.1-.4-.2-.6-.2-.3-.1-.7-.1-1 0-.3.1-.6.3-.8.7-.2.2-.4.5-.6.8-.2.3-.4.5-.6.8-.3.4-.7.7-1.1.8-.4.2-.9.2-1.4.1-.3-.1-.6-.2-.8-.4-.2-.2-.4-.4-.6-.7l-.3-.9c0-.3 0-.7.1-1 .1-.4.2-.7.4-1 .2-.3.4-.5.6-.7L90 88l.1-.5 2.7.7-.1.5h-1c-.3 0-.6.1-.9.2-.3.1-.5.3-.7.5-.2.2-.3.5-.4.8-.1.4 0 .7.1 1 .2.3.4.5.8.6.4.1.7.1.9 0 .3-.1.5-.3.8-.6.2-.2.4-.5.6-.7.2-.2.3-.5.5-.7.1-.2.3-.4.5-.6.2-.2.4-.3.6-.4zm5-5.6-.5 3.7-.4-.1v-.9c0-.1-.1-.2-.2-.3-.1-.1-.2-.1-.4-.1l-6-.8h-.3c-.1 0-.2.1-.3.3-.1.1-.1.2-.2.4s-.1.3-.1.4l-.4-.1.5-3.7.4.1v.9c0 .1.1.2.2.3.1.1.2.1.3.1l6 .8h.3c.1 0 .2-.1.3-.3 0-.1.1-.2.2-.4s.1-.3.1-.5l.5.2zm-5.3-9.9v.4c-.2 0-.3.1-.5.2l-.6.3c-.2.1-.3.2-.5.4-.1.1-.2.3-.3.4 0 .1 0 .3-.1.4v.9l6.7.2c.1 0 .2 0 .4-.1.1 0 .2-.2.3-.3 0-.1.1-.2.2-.4 0-.2.1-.4.1-.5h.4l-.2 4h-.4v-.5c0-.2 0-.4-.1-.5 0-.1-.1-.2-.2-.3-.1-.1-.2-.1-.4-.1l-6.7-.3v1.3c0 .1.1.3.2.4.1.1.3.3.5.4.2.1.4.2.5.3.2.1.4.2.5.2v.4l-2.3-.1.3-7.3 2.2.2zm-1.8-9.2c0 .1 0 .2.1.3.1.1.1.3.2.3.1.2.2.3.2.3.1.1.2.2.4.3.4.3.9.6 1.3.9.4.3 1 .6 1.7 1 .3.2.5.3.6.3.2.1.4.1.7.1h1.6c.1 0 .3 0 .4-.1.1-.1.2-.2.2-.3 0-.1.1-.2.1-.5 0-.2.1-.4.1-.5h.4l-.1 3.9h-.4v-.5c0-.2 0-.4-.1-.5-.1-.2-.1-.2-.2-.3-.2.2-.3.2-.5.2h-2c-.1 0-.2 0-.3.1l-.6.3c-.5.2-1 .5-1.5.8-.5.3-1 .5-1.4.7-.2.1-.4.2-.5.3l-.3.3c-.1.1-.1.2-.1.3 0 .1-.1.2-.1.3h-.4l.1-3.6h.4c0 .4 0 .7.1.9 0 .2.1.2.2.2h.1c.1 0 .1-.1.2-.1.1-.1.2-.1.4-.2.1-.1.3-.1.4-.2.4-.2.7-.4 1.1-.5.3-.2.8-.4 1.4-.7-1-.6-1.7-1.1-2.3-1.4-.5-.3-.9-.5-1-.5-.1 0-.2 0-.2.1-.1 0-.1.1-.1.2s-.1.2-.1.4v.4H92l.1-2.9h.3zM50.9 98.7c-.3 0-.6.1-.8.4-.2.2-.3.6-.3 1s.1.7.3.9c.2.2.5.3.8.3.3 0 .6-.1.8-.3.2-.2.3-.5.3-.9s-.1-.7-.3-.9c-.3-.3-.5-.5-.8-.5zm5.3 0c-.3 0-.6.1-.8.4-.2.3-.4 1-.4 1.9 0 .9.1 1.5.3 1.8.2.3.5.5.8.5.3 0 .6-.2.8-.5.2-.3.3-.9.3-1.8s-.1-1.6-.3-1.9c-.1-.2-.4-.4-.7-.4z" class="st1"/>
  <path d="M87.5 43.6H20.6c-.1 0-.1.1-.1.2-.1 8.6 0 17.5 0 25.8-.1 8.5 1.2 16.1 3.9 22.2 2.7 6 7.1 10.3 12.2 13.9 5.1 3.6 11.5 5.6 17.5 8.6 5.9-3.1 12.3-5 17.4-8.7 5-3.6 9.6-7.8 12.3-13.9 2.7-6.1 3.9-13.5 3.9-22.2-.1-8.5-.1-17.4-.2-25.9zM36 81.5c4.5-2.4 9.1-5 12.7-8.4-2.4.6-4.2.6-6.2.6.3-.5.9-.8 1.3-1.3 3-2.8 6.4-5.5 8-9.7-1.1.4-2.5.7-4 .7 2.9-3.8 5.2-8.2 6.5-13.6h.2c1.2 5.5 3.5 9.8 6.5 13.6-1.3-.1-2.4-.1-3.9-.7.1.6.4 1.2.7 1.8 1.4 2.7 3.8 4.8 5.9 6.8.9.8 1.8 1.5 2.6 2.4-2.4.2-3.5 0-6.1-.7.9 1 2 1.8 3 2.6 2.8 2.3 6.2 4 9.6 5.8.3.1.7.2.8.6-2.8.4-6 .2-9-.8-3.7-1.3-7.3-1.4-9.9 1.1-2.9-2.3-5.8-2.4-10.5-1.1-2.7.8-6.1 1.2-8.9.9-.1-.4.4-.4.7-.6zm10.3 22.4h-.7v-4.4c-.2.2-.4.3-.7.5-.3.2-.5.3-.7.4v-.7c.4-.2.7-.4 1-.7.3-.3.5-.5.6-.8h.5v5.7zm6.2-1.3c-.2.4-.4.8-.7 1-.3.2-.7.3-1.1.3-.5 0-.8-.1-1.1-.4-.3-.2-.5-.6-.5-1l.7-.1c.1.3.2.6.3.7.1.2.4.2.6.2.2 0 .4-.1.6-.2.2-.1.3-.2.4-.4.1-.2.2-.4.3-.7.1-.3.1-.6.1-.9v-.2c-.1.2-.3.4-.6.6-.2.1-.5.2-.8.2-.5 0-.9-.2-1.2-.5-.3-.4-.5-.8-.5-1.4 0-.6.2-1 .5-1.4.3-.3.8-.5 1.3-.5.4 0 .7.1 1 .3.3.2.5.5.7.9.1.4.2.9.2 1.6 0 .9-.1 1.5-.2 1.9zm5.3.1c-.1.4-.3.7-.6.9-.3.2-.6.3-1 .3-.5 0-1-.2-1.3-.6-.4-.5-.6-1.2-.6-2.3 0-.7.1-1.2.2-1.6.1-.4.3-.7.6-.9.3-.2.6-.3 1-.3.3 0 .6.1.8.2.2.1.4.3.6.5.2.2.3.5.3.8.1.3.1.8.1 1.4.1.6 0 1.2-.1 1.6zm5.5 1.2h-3.8c0-.2 0-.3.1-.5.1-.3.3-.5.5-.8.2-.3.5-.5.9-.9.6-.5 1-.9 1.3-1.2.2-.3.3-.6.3-.8 0-.3-.1-.5-.3-.7-.2-.2-.5-.3-.8-.3-.3 0-.6.1-.8.3-.2.2-.3.5-.3.8l-.7-.1c.1-.5.2-.9.6-1.2.3-.3.8-.4 1.3-.4s1 .1 1.3.4c.3.3.5.7.5 1.1 0 .2 0 .5-.1.7-.1.2-.3.5-.5.7-.2.2-.6.6-1.1 1-.4.3-.7.6-.8.7-.1.1-.2.3-.3.4h2.8v.8zm-5.7-15.8.2 1.5h-6.5l.2-1.5H31.1l2.5-3.1c2.2-.1 6.3-.7 9.9-2 6.9-2.6 11.1 1 11.1 1 3.3-2.8 7.5-2.2 11.3-.8 3.6 1.3 9.2 1.7 9.2 1.7l2.4 3.2H57.6z" class="st1"/>
</svg>
