<?xml version="1.0" encoding="utf-8"?>
<svg version="1.1" xmlns="http://www.w3.org/2000/svg" xmlns:xlink="http://www.w3.org/1999/xlink" viewBox="0 0 109 139" xml:space="preserve">
<style type="text/css">
	.st0{fill-rule:evenodd;clip-rule:evenodd;fill:#6B2364;}
	.st1{fill:#6B2364;}
	.st4{letter-spacing:1;}
</style>
<g>
	<g>
		<path class="st0" d="M0,3.1c6.9,4,15.9,6.8,26.7,6.9C37.8,10.2,47.2,8,54,3.7C60.9,8,70.4,10.2,81.3,10c10.6-0.1,20-2.9,26.7-6.9
			c0.1,15.9-0.2,31.1-0.2,47c0,15.7,0.8,32.1-3.2,44.1c-2,5.9-4.9,10.9-8.3,15.5c-3.3,4.6-7.4,8.6-11.7,12
			c-4.5,3.5-9.8,5.9-15.1,8.6c-4.6,2.3-9.2,4.7-13.6,7.1c-0.6,0.3-1.4,0.6-1.8,1.2c-2.4-1.6-5-2.9-7.6-4.3c-2.6-1.3-5.3-2.7-7.9-4.1
			c-2.7-1.4-5.4-2.6-8-3.9c-2.6-1.4-4.9-2.9-7.2-4.7c-9-6.9-15.9-15.7-20-27.5C1.4,88,0.8,81.1,0.4,73.5C0,66,0.2,58.1,0.2,50.4
			C0.2,34.6,0,19.2,0,3.3C0,3.2,0,3.1,0,3.1z M51.3,8.8C41.9,12.9,27,14.2,15,11.7C11.2,11,7.8,9.9,4.8,8.6C4.4,8.4,3.9,8,3.5,8.1
			c-0.1,14.7,0.2,29.9,0.2,44c0,7.3-0.4,14.8-0.1,21.8c0.3,7,1.1,13.6,3,19.2c1.9,5.6,4.4,10.4,7.5,14.7c4.7,6.5,10.3,12,17.5,15.8
			c2.4,1.3,5,2.4,7.5,3.6c5,2.3,10,4.8,15,7.2c5-2.5,10-4.8,15-7.2c2.6-1.2,5.1-2.3,7.5-3.6c4.8-2.5,8.8-5.9,12.4-9.7
			c5.4-5.7,9.8-12.7,12.4-20.9c3.7-11.5,3-26.1,3-40.9c0-14.9,0-29.5,0.2-44.1c-0.5,0-0.9,0.3-1.3,0.5c-3.1,1.4-6.4,2.5-10.2,3.2
			c-8.8,1.7-19.5,1.4-27.7-0.4c-4.2-0.9-8-2.3-11.3-4C53.4,7.9,52.4,8.3,51.3,8.8z"/>
		<path class="st0" d="M55.2,13.4c4.6,0.5,8.1,2.9,10.2,6.4c0.3,0.5,0.7,1.2,0.7,1.5c-0.1,0.4-0.3,0.7-0.7,0.7
			c-0.5,0-0.6-0.7-0.9-1.2c-1.8-3.1-4.6-5.2-8.7-5.9c0.2,0.9,0.6,1.9,1,2.8c0.3,1,0.7,2,1,2.9c0.2,0.2,0,0.4,0,0.6
			c0.7-0.1,1.6,0,1.4,0.8c-0.2,1.1-3.3,0.3-4.5,0.5c-0.1,0.8,0,1.9-0.1,2.8c0.6,0.4,3.7-0.3,4.3,0.1c0.2,0.1,0.3,0.5,0.2,0.7
			c-0.2,1.2-3.3,0.2-4.5,0.5c-0.2,1,0.3,2.3-0.7,2.4c-0.9,0.1-0.7-1.2-0.7-2.3c-1.2-0.4-4.3,0.6-4.6-0.5c-0.3-1.6,3.4-0.4,4.5-0.9
			c0.1-0.8,0.1-2,0-2.8c-1-0.4-4.3,0.5-4.5-0.5c-0.2-0.8,0.6-0.9,1.4-0.9c0.2-0.2-0.1-0.3,0-0.6c0.8-1.9,1.4-3.9,2.1-5.7
			c-5,0.7-8.1,3.7-9.6,7.9c0.5,0,1.4-0.3,2.4-0.5c1.1-0.2,3.4-0.7,2.8,0.9c-0.9,0.3-2,0.3-3,0.5c-0.9,0.2-1.8,0.5-2.6,0.8
			c-0.2,0.3-0.2,0.7-0.2,1.1c0.8-0.1,1.7-0.5,2.8-0.7c0.8-0.1,3.2-0.7,3,0.6c-0.1,0.6-0.8,0.5-1.3,0.5C45,26,43.1,26.5,42.1,27
			c0,0.2,0,0.7,0.1,0.9c0.9-0.2,1.6-0.4,2.8-0.6c0.8-0.1,2.6-0.6,2.7,0.2c0.2,1.2-1.9,0.9-2.9,1c-1.1,0.2-1.8,0.5-2.4,0.7
			c0.2,0.6,0.3,1.3-0.3,1.4c-1.2,0.3-1.3-2.5-1.3-3.6c0-1.7,0.2-3.2,0.5-4.3c1.5-5.2,5.6-8.6,11.6-9.5c0.4-0.6,0.4-1.9,1.3-1.8
			C54.9,11.6,54.8,12.8,55.2,13.4z M54.8,16.1c-0.2-0.5-0.4-1.6-0.9-1.5c-1,2-1.6,4.4-2.5,6.5c0.5,0,1.4,0,1.9,0
			c-0.4-1.9,1.8-2.1,1.4,0c0.5,0,1.5,0,2,0C56.1,19.7,55.4,17.7,54.8,16.1z"/>
		<path class="st0" d="M26.8,18.4c0.3,0.2-0.1,0.6,0.1,0.8c0.8-0.2,1.9,0.5,2,0.9c0.1,0.6-0.5,1.2-0.4,2c1.4,0.9,1.8,2.9,3.4,3.6
			c0.7,1.3,1.2,3.3,0.9,5.1c-0.2,1.4-1.6,1.5-1.3,3.3c0.1,0.8,0.6,2.4,1.2,2.6c0.4,0.2,0.9,0,1.2,0.2c0.3,0.4,0.2,1.1-0.1,1.5
			c-1.1,0.2-1.5,1.4-2.9,0.9c-0.5-0.2-1.4-0.8-1.7-1.2c-0.2-0.3-0.2-0.7-0.3-1c-0.3-0.7-0.8-1-1.1-1.5c-0.8,0.3-3.4-0.2-3,1.2
			c0.2,0.6,2.2,0.3,1.6,1.8c-0.2,0.5-2,1.3-2.7,1.4c-0.2,0-0.7,0.1-0.8,0.1c-0.2,0-0.4-0.2-0.7-0.3c-0.6-0.1-1.3,0.1-1.9,0
			c-0.4-0.1-1.4-0.8-1.7-1.1c-0.2-0.2-0.7-0.8-0.8-1c-0.3-0.6-0.1-1.2-0.8-1.4c-0.3-0.1-0.7-0.1-1-0.2c-0.6-0.2-1.3-0.7-1.8-0.3
			c-0.6,0.7,0.4,1,0.7,1.6c0.3,0.6,0.1,1,0.2,1.8c-0.2,0.3-0.6,0.8-1.2,0.9c-0.7,0.1-1.6-0.4-2.6-0.6c-0.6-0.2-1.6-0.2-1.7-0.8
			c-0.1-0.4,0.3-0.6,0.4-1C10,37.3,9.7,37,10,36.6c-0.4-0.7-0.2-1.7-0.3-2.9c0-1.3,0-2.2,0.3-3.2c0.1-0.3,0.1-0.7,0.2-0.9
			c0.2-0.4,1.4-1.4,1.8-1.6c1.1-0.6,2.9-1.1,4.8-0.8c0.4,0,0.8,0.4,1.2,0.5c0.7,0.1,1.7-0.1,2.5,0c0.2-0.1,0.4-0.3,0.6-0.5
			c0.1-1.3-0.6-1.7-1-2.6c0.2-1.3-0.2-2.7,0.2-3.9c0.1-0.3,0.7-1.3,1-1.6c0.3-0.3,0.9-0.8,1.3-0.9c0.7-0.1,1.8,0.3,2.4,0.5
			C25.5,18.2,26.3,18.2,26.8,18.4z M23.4,21c0.6,0.1,0.8-0.6,1.1-0.9c-0.2-0.3-0.1-0.8-0.5-0.8C24,20.1,23.6,20.5,23.4,21z
			 M21.3,20.8c0.1,0.1,0.2,0.1,0.4,0.1c0.1-0.3,0.2-0.8,0.4-1.1C21.6,19.6,21.2,20.4,21.3,20.8z M24.9,21c-0.5,0.4-1.5,0.8-1.2,1.7
			c0,0,0.1,0,0.1,0c0.7-0.2,0.8-0.9,1.3-1.3c0.4-0.3,1.2-0.6,1.1-1.4C25.6,19.8,25.3,20.6,24.9,21z M24.9,23.7c0,0,0.1,0.1,0.1,0.1
			c0.2,0.1,0.4-0.1,0.6-0.1c0.5,0,0.8,0.2,1.1,0.2c0.3-0.3,0-0.8-0.3-0.8C26.1,23.7,24.7,22.6,24.9,23.7z M28.6,23.1
			c-0.3,0-0.4,0.3-0.4,0.5c0,0.4,0.8,0.8,1.2,0.8C29.2,24.2,28.9,23.1,28.6,23.1z M23.6,24c-0.5,0.2-0.7,0.6-0.9,1.1
			c0.4,0.2,0.5-0.4,0.8-0.4c0.4,0.2,0.4,0.8,0.8,1c0.1,0.2,0.6-0.1,0.6,0.2c0,0.3-0.5,0.3-0.8,0.5c-0.3,0.2-1,0.7-1.5,1
			c-0.9,0.5-2.1,1.2-0.8,1.8c0.1-0.1,0-0.4,0.1-0.5c0.1-0.3,1.2-1.1,1.4-1.1c0.2,0,0.5,0.1,0.7,0.1c0.6-0.1,0.7-0.7,1.3-0.9
			c0.3,0.1,0.7,0.1,1.1,0.1c0.5,0.2,0.2,1.2,0.9,1.3c0.3-0.4,0.1-0.9,0.4-1.3c-0.1-0.4-0.4-0.5-0.4-0.9c0.1-0.2,0.4-0.3,0.6-0.4
			c0.5,0.4,0.4,1.4,1,1.8c0.5-0.3,0.6-1.3,0.3-1.8c-0.3-0.4-1-0.6-1.2-0.9c-1.3,0-2.4,0.3-3.4,0.7C24.1,24.9,24,24.3,23.6,24z
			 M30.2,27.7c0.4-0.2,0.2-1.1-0.3-1.2C29.7,26.8,29.7,27.7,30.2,27.7z M24.8,28.2c0.1,0.3,0.6,0.2,0.7,0.6c-0.2,0.6,0.4,1,0.5,1.5
			c-0.3,0.5-0.9,0-1-0.3c-0.3,0-0.4,0.2-0.4,0.5c1.3,0.1,0.6,1.6-0.2,1.9c-0.2,0.1-0.6,0-0.9,0.1c-0.3,0.1-0.6,0.4-1,0.6
			c-0.5,0.2-1.1,0-1.4,0.3c-0.2,0.7-0.1,1.5,0.4,1.5c0.5,0,0.5-1,1-1.2c0.7,0.1,0.6-0.5,1-0.6c0.2-0.1,0.5,0.1,0.7,0
			c0.8-0.2,1-1.3,1.5-1.9c1.3,0.2,1.6-1,1.7-1.9c-0.7,0.1-1.6,0.2-1.7-0.4c-0.1-0.5,0.4-0.7,0.5-1.1C25.8,27.2,24.9,27.7,24.8,28.2z
			 M14,28.4c-0.3,0-0.2-0.3-0.5-0.2c0,0.4-0.4,0.4-0.5,0.7c0.1,0.3,0.5,0.3,0.6,0.6c0.9,0,1.2-0.7,2-0.8C15.4,27.5,14.6,28,14,28.4z
			 M16.9,28c-0.2,0.3,0,0.9,0.3,1C17.8,28.8,17.6,27.9,16.9,28z M19.9,30.3c0.2-0.3,0.1-1-0.3-1C19.4,29.5,19.3,30.4,19.9,30.3z
			 M10.6,30.9c0.4,0.2,1.2,0.3,1.5-0.1c-0.2-0.4-0.2-0.7-0.2-1.1C11.3,30,10.8,30.3,10.6,30.9z M20.2,31.2c0.5,0.1,1.4,0.2,1.5-0.3
			C21.4,30.3,20.1,30.3,20.2,31.2z M13.6,32.3c-0.3,0-0.2-0.3-0.4-0.3c-0.3,0-0.3,0.4-0.6,0.4c-0.1,0-0.2-0.1-0.4-0.1
			c-0.1,0.1-0.3,0.2-0.3,0.5c0.3-0.1,0.4-0.1,0.6,0.1c0.1-0.1,0.1-0.3,0.3-0.3c0,0.9-0.6,1.7-1.6,1.8c-0.1,0.5-0.4,0.7-0.7,0.9
			c-0.2,1.1,0.1,2,1.1,2c0.1-0.2,0.1-0.5,0.1-0.8c-0.3-0.3-0.6-0.6-0.5-1.3c0.2-0.1,0.4-0.2,0.7-0.2c0.4-0.4,0.8-0.9,1.1-1.5
			c-0.2-0.6,0.5-1.1,0.8-0.6c0,0.2-0.2,0.5,0.1,0.5c0.2-0.1,0-0.2,0-0.4c0.3-0.4,0.9-0.4,1.1-0.9C14.6,31.4,14.1,32.1,13.6,32.3z
			 M10.9,33.4c0.3-0.3,0.4-0.9,0.2-1.4C10.5,32,10.4,33.1,10.9,33.4z M18.3,33.5c0,0.2,0.5,0.1,0.6,0.1c0-0.1,0-0.1,0.1-0.2
			c-0.1-0.1-0.3-0.2-0.4-0.3C18.6,33.4,18.2,33.3,18.3,33.5z M23.2,34.2c-0.2,0.1-0.5,0.2-0.6,0.4c-0.1,0.4,0.1,1.1-0.2,1.2
			c-0.6-0.4-1-0.1-1.3,0.3c-0.3-0.1-0.4-0.3-0.8-0.2c0,0.2-0.2,0.9,0.1,0.9c0.3-0.1-0.2-0.6,0.2-0.6c0.1,0.3,0.3,0.5,0.5,0.7
			c0,0.4-0.2,1.3,0.1,1.6c0.7-0.2,0-1.7,0.9-1.8c0.3,0.2,0.2,0.7,0.2,1.1c0.2,0.1,0.5,0.5,1,0.5c0.5,0.1,1.3-0.1,1.5-0.5
			c-0.3-0.2-0.8-0.2-1-0.5c-0.1-0.1-0.1-0.3-0.1-0.4c-0.6-0.4-0.8-1.4-0.6-2.2c0.1-0.3,0.7-0.7,0.2-1C23.1,33.8,23.2,34,23.2,34.2z
			 M12.4,37.6c0,0.1,0,0.1,0,0.2c0.5-0.1,0.6,0.6,1.1,0.4C13.3,37.7,12.8,37.4,12.4,37.6z"/>
		<path class="st0" d="M95.1,35.9c-0.6-0.4-1.3,0.2-1.9,0.3c-0.7,0.2-1.3,0.2-1.6,0.8c-0.1,0.3-0.1,0.6-0.2,0.9
			c-0.5,1.1-1.6,1.4-2.4,2.1c-0.6,0.1-1.3-0.1-2,0c-0.5,0.1-0.7,0.4-1.4,0.2c-1.1-0.2-2.5-0.9-2.8-1.5c-0.5-1.2,0.8-1.4,1.6-1.7
			c0.2-1.2-0.6-1-1.6-1.1c-0.5-0.1-1-0.2-1.3-0.2c-0.3,0.1-1,1-1.2,1.5c-0.1,0.3-0.1,0.7-0.2,0.9c-0.3,0.7-1.7,1.4-2.4,1.4
			c-1,0-1.1-0.9-2.2-1c-0.2-0.5-0.3-1.2,0-1.5c0.3-0.2,1-0.1,1.3-0.4c0.4-0.3,1.3-2.6,1-3.7c-0.2-0.7-1.1-1.3-1.3-1.9
			c0-0.2-0.1-0.7-0.1-1c0-1.4,0-3.3,0.9-4.3c0.3-0.4,1-0.7,1.4-1.1c0.8-0.8,0.9-2.2,2-2.5c0-0.8-0.3-1.4-0.4-2c0.4-0.5,0.9-1,2-0.9
			c0.2-0.3-0.2-0.6,0.1-0.8c0.5-0.2,1.3-0.2,1.6,0.1c0.6-0.3,1.3-0.4,2-0.5c1.2-0.2,1.9,1,2.3,1.8c0.3,0.6,0.6,0.9,0.7,1.8
			c0,0.4,0,0.9,0,1.5c0,0.5,0.1,1,0,1.3c-0.2,1.1-1.9,2.4-0.4,3.2c0.8-0.1,1.7,0.1,2.5,0c0.4-0.1,0.8-0.4,1.1-0.5
			c0.9-0.2,1.9-0.1,2.6,0c1.7,0.2,3,1.3,4.1,2.3c0,0.7,0.5,1.3,0.6,2c0.2,1.2,0.1,3.1-0.1,4.3c-0.1,0.6-0.3,1.2-0.1,2
			c0.1,0.4,0.4,0.6,0.4,0.9c-0.1,0.8-1,0.8-1.8,1c-1.5,0.4-3,1.1-3.6-0.3c0-0.9-0.1-1.3,0.2-1.9C94.7,36.9,95.6,36.7,95.1,35.9z
			 M85.8,21c0-0.4-0.4-0.5-0.5-0.8c-0.1-0.3,0.1-0.7-0.2-1C84.4,19.8,85,21.2,85.8,21z M87.5,20.9c0.2,0,0.4,0,0.4-0.1
			c-0.1-0.5-0.3-0.9-0.7-1C87.1,20,87.5,20.4,87.5,20.9z M82.9,20c0,1,0.9,1,1.4,1.6c0.4,0.4,0.5,1,1,1.1c0.6-0.7-0.5-1.5-1.1-1.8
			C83.9,20.5,83.6,19.8,82.9,20z M81,23.5c0-0.1-0.2-0.4-0.4-0.4c-0.3,0-0.7,1.2-0.7,1.3C80.3,24.5,81,23.9,81,23.5z M83.4,23.3
			c-0.3,0-0.6-0.3-0.8-0.2c-0.3,0.1-0.6,0.7-0.1,0.8c0.3-0.2,1.2-0.4,1.6,0c0.4-0.2,0.2-0.6-0.1-0.8C83.7,23.1,83.7,23.3,83.4,23.3z
			 M85.7,24c-0.6,0.3-0.6,1.1-1.2,1.3c-1-0.4-2-0.6-3.4-0.7c-0.2,0.4-1.1,0.6-1.3,1.1c-0.2,0.5,0,1.3,0.3,1.7
			c0.7-0.3,0.8-2.7,1.7-1.4c-0.1,0.3-0.3,0.5-0.4,0.9c0.4,0.3,0.2,0.8,0.4,1.2c0.7,0,0.4-1,0.9-1.2c0.4-0.1,0.8-0.1,1.2-0.2
			c0.6,0.4,1,1.1,2,0.8c0.5,0.5,1.5,0.7,1.4,1.7c0.4,0,0.7-0.5,0.7-0.7c0-0.5-1.2-1-1.8-1.3c-0.3-0.2-0.6-0.5-0.9-0.6
			c-0.4-0.2-0.9-0.2-1-0.6c0-0.2,0.4-0.1,0.6-0.1c0.4-0.2,0.4-0.9,0.9-1c0.3,0.1,0.4,0.6,0.7,0.4C86.4,24.7,86.1,24.2,85.7,24z
			 M78.7,27.4c0.4,0.7,0.9-0.3,0.6-0.9C78.8,26.5,78.8,27,78.7,27.4z M83,27.8c0.2,0.4,0.5,0.6,0.5,1.1c-0.2,0.6-1.2,0.4-1.8,0.4
			c0.1,0.8,0.3,2.1,1.7,1.8c0.5,0.7,0.8,1.5,1.5,1.9c1-0.4,0.9,0.6,1.8,0.6c0.5,0.2,0.5,1.1,1,1.2c0.6,0,0.6-1,0.4-1.6
			c-0.5-0.2-0.9,0-1.5-0.2c-0.2-0.1-0.4-0.4-0.7-0.5c-0.4-0.1-0.8,0-1.2-0.1c-0.5-0.2-0.9-0.9-0.9-1.6c0.1-0.3,0.6-0.1,0.7-0.5
			c0-0.2-0.2-0.3-0.3-0.3c-0.2,0.3-0.8,0.8-1.1,0.2c0.2-0.5,0.6-0.8,0.5-1.6c0.1-0.2,0.6-0.1,0.6-0.5C84.3,27.6,83.4,27.2,83,27.8z
			 M93.5,28.6c0.8,0.2,1.1,0.8,2,0.8c0.1-0.3,0.6-0.3,0.6-0.6c-0.2-0.2-0.5-0.2-0.5-0.7c-0.3-0.1-0.3,0.3-0.6,0.2
			C94.5,27.9,93.8,27.6,93.5,28.6z M92,29c0.3-0.2,0.5-0.6,0.3-1C91.6,27.9,91.4,28.8,92,29z M89.4,29.3c-0.3,0.2-0.4,0.8-0.2,1
			C89.8,30.5,89.9,29.4,89.4,29.3z M97.1,30.9c0.4,0.2,1.1,0.1,1.5,0.1c-0.2-0.7-0.7-1-1.3-1.2C97.3,30.1,97.2,30.5,97.1,30.9z
			 M87.5,31c0.2,0.3,1,0.3,1.4,0.2C89.1,30.3,87.6,30.3,87.5,31z M94.1,32.2c0.3,0.4,0.8,0.5,1.1,0.8c0,0.1-0.1,0.3,0,0.4
			c0.4,0,0.1-0.3,0.1-0.5c0.9-0.6,0.8,0.9,1.1,1.4c0.3,0.4,0.6,0.4,0.7,0.7c0.2,0,0.5,0.1,0.6,0.1c0.5,0.9-0.8,1.3-0.3,2.2
			c1.3,0.2,1.5-2.1,0.5-2.5c0-0.2-0.1-0.3-0.1-0.4c-1-0.1-1.7-1.1-1.6-1.9c0.2,0.4,0.5,0.1,0.9,0.3c0-0.2-0.2-0.4-0.4-0.5
			c-0.2,0-0.2,0.1-0.4,0.1c-0.2-0.1-0.3-0.3-0.5-0.4c-0.3,0-0.2,0.3-0.5,0.3C95.1,32,94.5,31.5,94.1,32.2z M98.4,33.3
			c0.3-0.3,0.2-1.3-0.3-1.3C97.8,32.4,97.9,33.2,98.4,33.3z M90.2,33.5c0.1,0.1,0.4,0.1,0.6,0.1c0-0.1,0-0.1,0.1-0.2
			C90.7,33.3,90.3,32.9,90.2,33.5z M86.1,34.7c-0.1,0.6,0,1-0.1,1.6c-0.3,0.3-0.6,0.5-0.6,1c-0.3,0.3-0.9,0.2-1.1,0.6
			c0.7,0.4,2,0.4,2.5-0.2c0.1-0.4-0.1-1,0.3-1.1c0.7,0.2,0.1,1.6,0.8,1.8c0.2-0.4,0.1-1.3,0-1.6c0.3-0.2,0.3-0.6,0.6-0.7
			c0,0.2-0.1,0.6,0.1,0.6c0.2-0.1,0.2-0.7,0.1-0.9c-0.5-0.1-0.5,0.2-0.9,0.2c-0.2-0.6-0.8-0.6-1.3-0.3c-0.2-0.4-0.1-0.7-0.1-1.3
			c-0.4-0.2-0.6-0.6-0.7-0.9C85.6,34.2,86,34.5,86.1,34.7z M95.7,38.2c0.4-0.1,0.7-0.3,1-0.6C96.4,37.4,95.7,37.7,95.7,38.2z"/>
		<path class="st0" d="M65.4,22.9c0.4-0.1,0.5-0.5,0.9-0.4c0.7,0.1,0.9,2,1,3c0.1,1.7,0,6.3-1.7,4.8c0-0.4,0-0.6,0.1-0.9
			c-0.8-0.5-2.4-0.8-3.9-1c-0.7-0.1-1.7,0-1.4-0.9c0.2-0.8,2-0.3,2.8-0.2c1.1,0.2,1.8,0.4,2.7,0.6c0.2-0.1,0.1-0.6,0.2-0.9
			c-0.7-0.5-3-1.1-4.4-1.2c-0.7-0.1-1.5,0-1.5-0.7c0-0.3,0.3-0.4,0.5-0.6c2.1,0,3.8,0.4,5.3,1c0.4-1.5-1.5-1.6-2.6-1.9
			c-1.1-0.2-2.2-0.3-3-0.4C59.9,23,59.9,22,60.7,22C62,22,64.5,22.5,65.4,22.9z"/>
		<path class="st0" d="M56.6,39.3c-1.3-1.7,2.8-1.5,3.3-2.4c-0.6-0.3-1.4-0.4-2.1-0.5c-0.8-0.1-1.6-0.2-2.3-0.2
			c0.1,1.2,0.6,3.1-0.7,3.5c-0.9,0.2-3.6,0-3.7-0.6c-0.3-1.4,2.1-0.5,3.1-0.6c0.3-0.6,0-1.7-0.2-2.2C52,36,50,36.4,48.3,36.8
			c0.5,0.8,2,0.6,2.1,1.4c0.3,1.7-2.7,0-3.1-0.3c-1.6-0.9-2.8-2-4-3.6c-0.5-0.6-1.4-1.8-1.3-2.4c0.1-0.6,1.4-1,2.3-1.2
			c5.2-1.4,11.2-1.9,17-0.8c0.8,0.2,1.7,0.5,2.6,0.8c0.8,0.2,2.2,0.5,2.3,1.1c0.1,0.7-1.2,2.4-1.5,2.8c-1.3,1.8-2.7,2.9-4.7,3.8
			C59,38.8,57.9,39.3,56.6,39.3z M43.6,32.3c0.8,1.5,1.9,2.6,3.1,3.6c0.8-0.3,1.7-0.5,2.7-0.7c-0.4-0.4-0.9-0.6-1.4-1
			c-0.4-0.3-1.1-0.7-1.1-1.3c0.1-0.6,1.4-1,2.3-1.2c3-0.7,6.6-0.6,9.5,0c0.9,0.2,2.4,0.4,2.4,1.2c0,0.4-0.7,1-1.1,1.3
			c-0.5,0.4-1.1,0.5-1.4,1c1.1,0.1,1.9,0.4,2.8,0.7c1.3-0.9,2.3-2.1,3-3.6C59,30,49.2,30.1,43.6,32.3z M49.1,33.3c2.3,2,7.7,2,10,0
			C56.4,32.4,51.7,32.4,49.1,33.3z"/>
		<path class="st1" d="M15.7,73.2c0-0.1-0.1-0.3-0.1-0.5c-0.1-0.2-0.1-0.4-0.2-0.5c-0.1-0.2-0.3-0.3-0.6-0.3c-0.3,0-0.6-0.1-1.1-0.1
			H7.6v-0.5l6.8-5.1h-4.3c-0.5,0-0.8,0-1.1,0.1c-0.3,0.1-0.5,0.1-0.6,0.3c-0.1,0.1-0.2,0.3-0.2,0.6c-0.1,0.3-0.1,0.5-0.1,0.5H7.7
			v-3.4h0.4c0,0.1,0,0.3,0.1,0.5c0.1,0.3,0.1,0.4,0.2,0.5c0.1,0.1,0.3,0.2,0.5,0.3c0.2,0.1,0.6,0.1,1.2,0.1h4.1c0.2,0,0.4,0,0.5-0.1
			c0.2-0.1,0.3-0.1,0.4-0.2c0.1-0.2,0.2-0.4,0.3-0.6c0.1-0.2,0.1-0.4,0.2-0.6h0.4v2.4l-6.4,4.7h4c0.5,0,0.9,0,1.1-0.1
			c0.3,0,0.4-0.1,0.5-0.3c0.1-0.1,0.1-0.3,0.2-0.5c0.1-0.3,0.1-0.5,0.1-0.6h0.4v3.4H15.7z"/>
		<path class="st1" d="M8.4,82.8L8,79.3l0.4,0c0.1,0.3,0.1,0.6,0.2,0.7c0.1,0.2,0.1,0.3,0.3,0.3c0,0,0.1,0,0.1,0c0,0,0.1,0,0.1-0.1
			l1.8-0.9l-0.3-2.9c-0.3-0.1-0.5-0.2-0.7-0.2c-0.2-0.1-0.4-0.1-0.6-0.1c-0.2,0-0.3,0-0.4-0.1c-0.1,0-0.2,0-0.3,0
			c-0.2,0-0.3,0.1-0.3,0.4c-0.1,0.3-0.1,0.5-0.1,0.8l-0.4,0l-0.3-3.2l0.4,0c0,0.1,0.1,0.2,0.1,0.4c0.1,0.1,0.1,0.3,0.2,0.3
			c0.1,0.2,0.2,0.3,0.4,0.3c0.1,0.1,0.3,0.1,0.5,0.2c1.1,0.3,2.3,0.6,3.7,1c1.4,0.4,2.6,0.7,3.6,1l0,0.5l-6.9,3.5
			c-0.1,0.1-0.3,0.1-0.4,0.2C9.1,81.8,9,81.9,8.9,82c0,0.1-0.1,0.2-0.1,0.4c0,0.2,0,0.3,0,0.4L8.4,82.8z M11.4,79.1l3.1-1.6
			l-3.4-0.9L11.4,79.1z"/>
		<path class="st1" d="M18.3,91.5c0-0.1-0.1-0.3-0.2-0.5c-0.1-0.2-0.2-0.3-0.3-0.4c-0.1-0.1-0.3-0.2-0.6-0.2c-0.3,0-0.6,0.1-1.1,0.2
			l-6,1.3l-0.1-0.5l5.6-6.4l-4.2,0.9c-0.5,0.1-0.8,0.2-1.1,0.3c-0.2,0.1-0.4,0.3-0.5,0.4c-0.1,0.1-0.1,0.3-0.1,0.6
			c0,0.3,0,0.5,0,0.6l-0.4,0.1l-0.8-3.4l0.4-0.1c0,0.1,0.1,0.3,0.2,0.5c0.1,0.2,0.2,0.4,0.3,0.4c0.1,0.1,0.3,0.2,0.5,0.2
			c0.2,0,0.6,0,1.2-0.2l4-0.9c0.2,0,0.4-0.1,0.5-0.2c0.2-0.1,0.3-0.2,0.3-0.3c0.1-0.2,0.2-0.4,0.2-0.6c0-0.3,0-0.5,0-0.6l0.4-0.1
			l0.5,2.3l-5.2,6l3.9-0.9c0.5-0.1,0.8-0.2,1.1-0.3c0.2-0.1,0.4-0.2,0.5-0.4c0-0.1,0.1-0.3,0.1-0.6c0-0.3,0-0.5,0-0.6l0.4-0.1
			l0.7,3.3L18.3,91.5z"/>
		<path class="st1" d="M20.9,96.5c-0.1-0.1-0.2-0.2-0.2-0.3c-0.1-0.1-0.2-0.2-0.3-0.3c-0.1-0.1-0.2-0.1-0.3-0.1
			c-0.1,0-0.2,0-0.3,0.1l-4.3,2.5c-0.2,0.1-0.5,0.2-0.8,0.3c-0.3,0.1-0.6,0.1-0.9,0c-0.3-0.1-0.7-0.2-1-0.4
			c-0.3-0.2-0.5-0.5-0.7-0.9c-0.3-0.5-0.4-1.1-0.3-1.6c0.1-0.5,0.4-0.9,1-1.2c0.2-0.1,0.5-0.2,0.7-0.2c0.2,0,0.4,0.2,0.6,0.4
			c0.1,0.2,0.1,0.4,0.1,0.6c0,0.2-0.2,0.3-0.3,0.5c-0.1,0.1-0.2,0.1-0.4,0.1c-0.1,0-0.2,0-0.4,0c-0.1,0-0.2,0-0.4,0
			c-0.1,0-0.3,0-0.4,0c-0.1,0.1-0.1,0.3-0.1,0.5c0,0.2,0.1,0.4,0.2,0.7c0.2,0.3,0.3,0.4,0.5,0.5c0.2,0.1,0.4,0.1,0.7,0.1
			c0.2,0,0.5-0.1,0.8-0.2c0.3-0.1,0.6-0.3,0.9-0.4l3.8-2.2c0.1-0.1,0.2-0.1,0.3-0.2c0.1-0.1,0.1-0.2,0.1-0.4c0-0.1-0.1-0.3-0.1-0.5
			c-0.1-0.2-0.1-0.3-0.2-0.4l0.4-0.2l1.8,3.2L20.9,96.5z"/>
		<path class="st1" d="M18,106l-2.3-3l0.3-0.3c0.1,0.1,0.2,0.2,0.3,0.4c0.1,0.1,0.2,0.2,0.3,0.3c0.1,0.1,0.2,0.1,0.3,0.1
			c0.1,0,0.2-0.1,0.3-0.1l4.8-3.7c0.1-0.1,0.2-0.2,0.2-0.3c0-0.1,0-0.2,0-0.4c0-0.1-0.1-0.3-0.2-0.4c-0.1-0.2-0.1-0.3-0.2-0.4
			l0.3-0.3l2.3,3l-0.3,0.3c-0.1-0.1-0.2-0.2-0.3-0.3c-0.1-0.1-0.2-0.2-0.4-0.3c-0.1-0.1-0.2-0.1-0.4-0.1c-0.1,0-0.2,0.1-0.3,0.1
			l-4.8,3.7c-0.1,0.1-0.2,0.2-0.2,0.3c0,0.1-0.1,0.2,0,0.4c0,0.1,0.1,0.2,0.2,0.4c0.1,0.2,0.2,0.3,0.2,0.4L18,106z"/>
		<path class="st1" d="M32.4,109c-0.1-0.1-0.2-0.2-0.4-0.3c-0.2-0.1-0.4-0.2-0.5-0.2c-0.2,0-0.4,0-0.6,0.2c-0.2,0.2-0.5,0.4-0.8,0.7
			l-4.2,4.4l-0.4-0.4l1.1-8.5l-3,3.1c-0.3,0.4-0.6,0.6-0.7,0.9c-0.1,0.2-0.2,0.4-0.2,0.6c0,0.1,0.1,0.3,0.2,0.6
			c0.1,0.2,0.3,0.4,0.3,0.5L23,111l-2.5-2.4l0.3-0.3c0.1,0.1,0.2,0.2,0.5,0.3c0.2,0.1,0.4,0.2,0.5,0.2c0.2,0,0.4,0,0.6-0.2
			c0.2-0.1,0.5-0.4,0.8-0.8l2.9-3c0.1-0.1,0.2-0.3,0.3-0.5c0.1-0.2,0.1-0.3,0.1-0.5c0-0.2-0.1-0.4-0.2-0.6c-0.1-0.2-0.2-0.4-0.3-0.5
			l0.3-0.3l1.7,1.7l-1,7.9l2.7-2.9c0.3-0.4,0.6-0.7,0.7-0.9c0.1-0.2,0.2-0.4,0.2-0.6c0-0.1-0.1-0.3-0.3-0.5
			c-0.1-0.2-0.2-0.4-0.3-0.5l0.3-0.3l2.5,2.3L32.4,109z"/>
		<path class="st1" d="M37.1,117.6c-0.1,0-0.2-0.1-0.3-0.2c-0.1-0.1-0.3-0.1-0.4-0.1c-0.1,0-0.2,0-0.4,0.1c-0.1,0.1-0.2,0.2-0.3,0.3
			l-0.4,0.5c-0.3,0.4-0.5,0.7-0.5,0.8c-0.1,0.2-0.2,0.2-0.2,0.3c-0.6-0.1-1.1-0.2-1.6-0.4c-0.5-0.2-1-0.4-1.4-0.7
			c-0.4-0.3-0.8-0.7-1.1-1.1c-0.3-0.4-0.5-0.9-0.6-1.4c-0.1-0.5-0.1-1.1,0-1.6c0.1-0.6,0.3-1.1,0.7-1.7c0.3-0.5,0.8-1,1.3-1.3
			c0.5-0.3,1-0.6,1.5-0.7c0.5-0.1,1.1-0.1,1.6,0c0.5,0.1,1.1,0.3,1.6,0.7c0.4,0.3,0.7,0.5,0.9,0.8c0.2,0.3,0.4,0.6,0.5,0.8l0.4-0.2
			l0.4,0.3l-1.6,2.5L37,115c0.1-0.3,0.2-0.6,0.3-1c0.1-0.3,0.1-0.6,0.1-1c0-0.3-0.1-0.6-0.3-0.9c-0.1-0.3-0.4-0.5-0.7-0.7
			c-0.4-0.2-0.7-0.4-1.1-0.4c-0.4,0-0.8,0-1.1,0.2c-0.4,0.1-0.8,0.4-1.1,0.7c-0.4,0.3-0.8,0.7-1.1,1.2c-0.3,0.4-0.5,0.9-0.7,1.4
			c-0.2,0.5-0.2,0.9-0.2,1.3c0,0.4,0.1,0.8,0.3,1.2c0.2,0.4,0.5,0.7,0.9,0.9c0.3,0.2,0.6,0.3,0.9,0.4c0.3,0.1,0.5,0.1,0.7,0.1
			c0.2-0.2,0.3-0.3,0.4-0.5c0.1-0.2,0.2-0.3,0.3-0.4l0.2-0.4c0.1-0.1,0.2-0.3,0.2-0.4c0-0.1,0-0.3-0.1-0.4c-0.1-0.1-0.2-0.3-0.4-0.4
			c-0.2-0.1-0.3-0.3-0.4-0.3l0.2-0.4l3.1,2.1L37.1,117.6z"/>
		<path class="st1" d="M58.1,119c-0.1,0-0.3,0-0.5,0.1c-0.2,0-0.4,0.1-0.5,0.2c-0.1,0.1-0.2,0.3-0.3,0.6c-0.1,0.3-0.1,0.6-0.1,1v3.6
			c0,0.4-0.1,0.9-0.3,1.2c-0.2,0.4-0.5,0.6-0.8,0.9c-0.3,0.2-0.6,0.4-1,0.5c-0.3,0.1-0.7,0.2-1,0.2c-0.5,0-1-0.1-1.3-0.2
			c-0.4-0.1-0.7-0.3-1-0.5c-0.3-0.2-0.5-0.5-0.6-0.8c-0.1-0.3-0.2-0.6-0.2-0.9v-4.9c0-0.2,0-0.3-0.1-0.4c0-0.1-0.1-0.2-0.3-0.2
			c-0.1-0.1-0.2-0.1-0.4-0.1c-0.2,0-0.3-0.1-0.4-0.1v-0.4H53v0.4c-0.1,0-0.2,0-0.4,0c-0.2,0-0.3,0.1-0.4,0.1c-0.1,0-0.2,0.1-0.3,0.2
			c-0.1,0.1-0.1,0.3-0.1,0.4v4.6c0,0.2,0,0.5,0.1,0.7c0.1,0.2,0.2,0.5,0.3,0.7c0.2,0.2,0.4,0.4,0.6,0.5c0.3,0.1,0.6,0.2,1.1,0.2
			c0.4,0,0.8-0.1,1.1-0.2c0.3-0.1,0.5-0.3,0.7-0.5c0.2-0.2,0.3-0.4,0.4-0.7c0.1-0.2,0.1-0.5,0.1-0.7v-3.4c0-0.5,0-0.8-0.1-1.1
			c-0.1-0.3-0.2-0.5-0.3-0.5c-0.1-0.1-0.3-0.2-0.6-0.2c-0.2,0-0.4-0.1-0.6-0.1v-0.4h3.4V119z"/>
		<path class="st1" d="M67.9,114.8c-0.1,0.1-0.2,0.2-0.4,0.3c-0.2,0.2-0.3,0.3-0.4,0.4c-0.1,0.1-0.1,0.3,0,0.6
			c0.1,0.3,0.2,0.6,0.3,1l2.5,5.6l-0.5,0.2l-7.4-4.3l1.7,4c0.2,0.4,0.4,0.8,0.5,1c0.2,0.2,0.3,0.4,0.5,0.4c0.1,0.1,0.3,0.1,0.6,0
			c0.3,0,0.5-0.1,0.6-0.1l0.2,0.4l-3.2,1.4l-0.2-0.4c0.1,0,0.2-0.2,0.5-0.3c0.2-0.2,0.3-0.3,0.4-0.3c0.1-0.2,0.1-0.4,0.1-0.6
			c0-0.2-0.2-0.6-0.4-1.1l-1.7-3.8c-0.1-0.2-0.2-0.3-0.3-0.5c-0.1-0.1-0.3-0.2-0.4-0.3c-0.2,0-0.4-0.1-0.6-0.1
			c-0.3,0-0.5,0.1-0.6,0.1l-0.2-0.4l2.2-1l6.9,4l-1.6-3.7c-0.2-0.4-0.4-0.8-0.5-1c-0.2-0.2-0.3-0.3-0.5-0.4c-0.1,0-0.3,0-0.6,0
			c-0.2,0-0.4,0.1-0.6,0.1l-0.2-0.4l3.1-1.3L67.9,114.8z"/>
		<path class="st1" d="M76.2,119.6l-3.4,1.7l-0.2-0.4c0.1,0,0.2-0.1,0.4-0.2c0.2-0.1,0.3-0.2,0.3-0.3c0.1-0.1,0.2-0.2,0.2-0.3
			c0-0.1,0-0.2-0.1-0.4l-2.7-5.4c0-0.1-0.1-0.2-0.2-0.3c-0.1-0.1-0.2-0.1-0.4-0.1c-0.1,0-0.3,0-0.5,0.1c-0.2,0.1-0.3,0.1-0.4,0.1
			l-0.2-0.4l3.4-1.7l0.2,0.4c-0.1,0.1-0.2,0.1-0.4,0.2c-0.1,0.1-0.3,0.2-0.4,0.3c-0.1,0.1-0.2,0.2-0.2,0.4c0,0.1,0,0.2,0.1,0.3
			l2.7,5.4c0.1,0.1,0.1,0.2,0.2,0.3c0.1,0.1,0.2,0.1,0.4,0.1c0.1,0,0.2,0,0.4-0.1c0.2,0,0.3-0.1,0.5-0.1L76.2,119.6z"/>
		<path class="st1" d="M80.4,106.4c-0.1,0.1-0.2,0.2-0.3,0.3c-0.1,0.1-0.1,0.3-0.2,0.4c-0.1,0.1-0.1,0.3-0.1,0.4
			c0,0.1,0.1,0.3,0.1,0.5c0.2,0.7,0.5,1.7,0.9,3c0.4,1.4,0.9,2.8,1.3,4.3l-0.4,0.3c-1.4-0.8-2.7-1.6-4-2.4c-1.3-0.8-2.2-1.3-2.6-1.6
			c-0.1-0.1-0.2-0.1-0.4-0.1c-0.1,0-0.2,0-0.4,0c-0.1,0-0.3,0.1-0.4,0.1c-0.1,0.1-0.2,0.1-0.3,0.2l-0.3-0.3l2.7-2.2l0.3,0.3
			c-0.2,0.2-0.4,0.4-0.5,0.5c-0.1,0.2-0.2,0.3-0.1,0.4c0,0,0.1,0.1,0.1,0.1c0.1,0,0.1,0.1,0.1,0.1c0.3,0.2,0.9,0.5,1.7,1
			c0.8,0.5,1.9,1.2,3.4,2c-0.2-0.8-0.5-1.6-0.8-2.7c-0.3-1-0.5-1.7-0.7-2.1c-0.1-0.4-0.2-0.6-0.3-0.7c-0.1-0.1-0.1-0.2-0.2-0.3
			c-0.1-0.1-0.1-0.1-0.2-0.1c-0.1,0-0.2,0-0.3,0.1c-0.1,0.1-0.3,0.1-0.4,0.2c-0.1,0.1-0.2,0.1-0.3,0.2l-0.3-0.3l2.4-1.9L80.4,106.4z
			"/>
		<path class="st1" d="M89.7,103.7l1.8,1.7l-4.5,5.3l-0.3-0.3c0.1-0.1,0.2-0.2,0.3-0.4c0.1-0.2,0.2-0.3,0.2-0.4c0-0.1,0-0.2,0-0.3
			c0-0.1-0.1-0.2-0.2-0.3l-4.6-3.9c-0.1-0.1-0.2-0.1-0.3-0.2c-0.1,0-0.2,0-0.4,0c-0.1,0-0.2,0.1-0.4,0.2c-0.1,0.1-0.3,0.2-0.3,0.3
			l-0.3-0.2l4.1-5l1.5,1.3l-0.3,0.3c-0.3-0.1-0.6-0.2-1.1-0.2c-0.4,0-0.7,0.1-0.9,0.2c-0.1,0.1-0.2,0.2-0.3,0.3
			c-0.1,0.1-0.2,0.3-0.4,0.4l-0.8,1l2.5,2.1l0.6-0.7c0.2-0.2,0.3-0.4,0.4-0.6c0-0.2,0-0.3,0-0.5c0-0.1-0.1-0.3-0.2-0.5
			c-0.1-0.2-0.2-0.3-0.3-0.4l0.3-0.3l2.5,2.1l-0.3,0.3c-0.2-0.1-0.3-0.2-0.5-0.3c-0.2-0.1-0.4-0.1-0.5-0.1c-0.2,0-0.4,0-0.5,0.1
			c-0.1,0.1-0.3,0.2-0.5,0.4l-0.6,0.7l2,1.6c0.2,0.2,0.3,0.3,0.5,0.3c0.1,0.1,0.3,0.1,0.4,0.1c0.1,0,0.2-0.1,0.4-0.2
			c0.1-0.1,0.3-0.3,0.5-0.6c0.1-0.1,0.2-0.2,0.3-0.4c0.1-0.1,0.3-0.3,0.3-0.4c0.1-0.1,0.2-0.3,0.2-0.4c0.1-0.1,0.1-0.3,0.1-0.3
			c0-0.3-0.1-0.6-0.3-1c-0.2-0.4-0.3-0.7-0.4-0.8L89.7,103.7z"/>
		<path class="st1" d="M96.7,95.9l-1.1,2c-0.9,0.1-1.7,0.2-2.4,0.3c-0.7,0.1-1.4,0.2-2.2,0.3l-0.4,0.8l2.3,1.3
			c0.1,0.1,0.2,0.1,0.3,0.1c0.1,0,0.2,0,0.4-0.1c0.1-0.1,0.1-0.2,0.2-0.3c0.1-0.1,0.2-0.3,0.2-0.4l0.4,0.2l-1.7,3.1l-0.4-0.2
			c0-0.1,0.1-0.2,0.2-0.4c0.1-0.2,0.1-0.3,0.1-0.3c0-0.1,0-0.2-0.1-0.3c-0.1-0.1-0.2-0.2-0.3-0.3L87,98.7c-0.1,0-0.2-0.1-0.3-0.1
			c-0.1,0-0.2,0-0.3,0.1c-0.1,0.1-0.2,0.2-0.3,0.3c-0.1,0.1-0.2,0.2-0.2,0.3l-0.4-0.2l1.9-3.4c0.2-0.3,0.3-0.6,0.6-0.8
			c0.2-0.2,0.5-0.4,0.7-0.6c0.2-0.1,0.5-0.2,0.8-0.2c0.3,0,0.6,0.1,0.9,0.2c0.3,0.2,0.5,0.3,0.7,0.5c0.2,0.2,0.3,0.4,0.4,0.7
			c0.1,0.2,0.1,0.5,0.1,0.8c0,0.3-0.1,0.6-0.1,0.9c0.7-0.1,1.3-0.2,1.7-0.2c0.5-0.1,1-0.2,1.7-0.2c0.3,0,0.5-0.1,0.7-0.2
			c0.2-0.1,0.3-0.1,0.4-0.2c0.1-0.1,0.2-0.2,0.3-0.3c0.1-0.1,0.2-0.2,0.2-0.3L96.7,95.9z M89.7,95.7c-0.5-0.2-0.9-0.3-1.3-0.2
			c-0.4,0.1-0.7,0.4-1,0.9L87,97.2l3.2,1.7l0.4-0.7c0.3-0.5,0.3-1,0.2-1.4C90.6,96.3,90.2,96,89.7,95.7z"/>
		<path class="st1" d="M94.5,88.8c0.2-0.1,0.5-0.2,0.7-0.2c0.3,0,0.5,0,0.8,0.1c0.7,0.2,1.2,0.6,1.6,1.2c0.3,0.7,0.4,1.4,0.2,2.2
			c-0.1,0.3-0.2,0.7-0.4,1c-0.2,0.4-0.4,0.6-0.7,0.8l0.4,0.4l-0.1,0.5l-2.8-0.7l0.1-0.5c0.4,0,0.7,0,1-0.1c0.3,0,0.6-0.1,0.9-0.3
			c0.3-0.1,0.5-0.3,0.7-0.6c0.2-0.2,0.3-0.5,0.4-0.9c0.1-0.3,0.1-0.5,0.1-0.7c0-0.2-0.1-0.4-0.2-0.5c-0.1-0.2-0.2-0.3-0.4-0.4
			c-0.2-0.1-0.4-0.2-0.6-0.2c-0.3-0.1-0.7-0.1-1,0c-0.3,0.1-0.6,0.3-0.8,0.7c-0.2,0.2-0.4,0.5-0.6,0.8c-0.2,0.3-0.4,0.5-0.6,0.8
			c-0.3,0.4-0.7,0.7-1.1,0.8c-0.4,0.2-0.9,0.2-1.4,0.1c-0.3-0.1-0.6-0.2-0.8-0.4c-0.2-0.2-0.4-0.4-0.6-0.7c-0.1-0.3-0.2-0.6-0.3-0.9
			c0-0.3,0-0.7,0.1-1c0.1-0.4,0.2-0.7,0.4-1c0.2-0.3,0.4-0.5,0.6-0.7L90,88l0.1-0.5l2.7,0.7l-0.1,0.5c-0.3,0-0.6,0-1,0
			c-0.3,0-0.6,0.1-0.9,0.2c-0.3,0.1-0.5,0.3-0.7,0.5c-0.2,0.2-0.3,0.5-0.4,0.8c-0.1,0.4,0,0.7,0.1,1c0.2,0.3,0.4,0.5,0.8,0.6
			c0.4,0.1,0.7,0.1,0.9,0c0.3-0.1,0.5-0.3,0.8-0.6c0.2-0.2,0.4-0.5,0.6-0.7c0.2-0.2,0.3-0.5,0.5-0.7c0.1-0.2,0.3-0.4,0.5-0.6
			C94.1,89,94.3,88.9,94.5,88.8z"/>
		<path class="st1" d="M99.5,83.2L99,86.9l-0.4-0.1c0-0.1,0-0.3,0-0.5c0-0.2,0-0.3,0-0.4c0-0.1-0.1-0.2-0.2-0.3
			c-0.1-0.1-0.2-0.1-0.4-0.1l-6-0.8c-0.1,0-0.2,0-0.3,0c-0.1,0-0.2,0.1-0.3,0.3c-0.1,0.1-0.1,0.2-0.2,0.4c-0.1,0.2-0.1,0.3-0.1,0.4
			l-0.4-0.1l0.5-3.7l0.4,0.1c0,0.1,0,0.3,0,0.4c0,0.2,0,0.3,0,0.5c0,0.1,0.1,0.2,0.2,0.3c0.1,0.1,0.2,0.1,0.3,0.1l6,0.8
			c0.1,0,0.2,0,0.3,0c0.1,0,0.2-0.1,0.3-0.3c0-0.1,0.1-0.2,0.2-0.4c0.1-0.2,0.1-0.3,0.1-0.5L99.5,83.2z"/>
		<path class="st1" d="M94.2,73.3l0,0.4c-0.2,0-0.3,0.1-0.5,0.2c-0.2,0.1-0.4,0.2-0.6,0.3c-0.2,0.1-0.3,0.2-0.5,0.4
			c-0.1,0.1-0.2,0.3-0.3,0.4c0,0.1,0,0.3-0.1,0.4c0,0.2,0,0.4,0,0.5l0,0.4l6.7,0.2c0.1,0,0.2,0,0.4-0.1c0.1,0,0.2-0.2,0.3-0.3
			c0-0.1,0.1-0.2,0.2-0.4c0-0.2,0.1-0.4,0.1-0.5l0.4,0l-0.2,4l-0.4,0c0-0.1,0-0.3,0-0.5c0-0.2,0-0.4-0.1-0.5c0-0.1-0.1-0.2-0.2-0.3
			c-0.1-0.1-0.2-0.1-0.4-0.1l-6.7-0.3l0,0.4c0,0.1,0,0.3,0,0.4c0,0.2,0,0.4,0,0.5c0,0.1,0.1,0.3,0.2,0.4c0.1,0.1,0.3,0.3,0.5,0.4
			c0.2,0.1,0.4,0.2,0.5,0.3c0.2,0.1,0.4,0.2,0.5,0.2l0,0.4l-2.3-0.1l0.3-7.3L94.2,73.3z"/>
		<path class="st1" d="M92.4,64.1c0,0.1,0,0.2,0.1,0.3c0.1,0.1,0.1,0.3,0.2,0.3c0.1,0.2,0.2,0.3,0.2,0.3c0.1,0.1,0.2,0.2,0.4,0.3
			c0.4,0.3,0.9,0.6,1.3,0.9c0.4,0.3,1,0.6,1.7,1c0.3,0.2,0.5,0.3,0.6,0.3c0.2,0.1,0.4,0.1,0.7,0.1l1.6,0c0.1,0,0.3,0,0.4-0.1
			c0.1-0.1,0.2-0.2,0.2-0.3c0-0.1,0.1-0.2,0.1-0.5c0-0.2,0.1-0.4,0.1-0.5h0.4l-0.1,3.9l-0.4,0c0-0.1,0-0.3,0-0.5
			c0-0.2,0-0.4-0.1-0.5c-0.1-0.2-0.1-0.2-0.2-0.3C99.4,69,99.3,69,99.1,69l-2,0c-0.1,0-0.2,0-0.3,0.1c-0.2,0.1-0.4,0.2-0.6,0.3
			c-0.5,0.2-1,0.5-1.5,0.8c-0.5,0.3-1,0.5-1.4,0.7c-0.2,0.1-0.4,0.2-0.5,0.3c-0.1,0.1-0.2,0.2-0.3,0.3c-0.1,0.1-0.1,0.2-0.1,0.3
			c0,0.1-0.1,0.2-0.1,0.3h-0.4l0.1-3.6h0.4c0,0.4,0,0.7,0.1,0.9c0,0.2,0.1,0.2,0.2,0.2c0,0,0.1,0,0.1,0c0.1,0,0.1-0.1,0.2-0.1
			c0.1-0.1,0.2-0.1,0.4-0.2c0.1-0.1,0.3-0.1,0.4-0.2c0.4-0.2,0.7-0.4,1.1-0.5c0.3-0.2,0.8-0.4,1.4-0.7c-1-0.6-1.7-1.1-2.3-1.4
			c-0.5-0.3-0.9-0.5-1-0.5c-0.1,0-0.2,0-0.2,0.1c-0.1,0-0.1,0.1-0.1,0.2c0,0.1-0.1,0.2-0.1,0.4c0,0.1,0,0.3,0,0.4H92l0.1-2.9H92.4z"
			/>
		<g>
			<path class="st1" d="M50.9,98.7c-0.3,0-0.6,0.1-0.8,0.4c-0.2,0.2-0.3,0.6-0.3,1c0,0.4,0.1,0.7,0.3,0.9c0.2,0.2,0.5,0.3,0.8,0.3
				c0.3,0,0.6-0.1,0.8-0.3c0.2-0.2,0.3-0.5,0.3-0.9s-0.1-0.7-0.3-0.9C51.4,98.9,51.2,98.7,50.9,98.7z"/>
			<path class="st1" d="M56.2,98.7c-0.3,0-0.6,0.1-0.8,0.4c-0.2,0.3-0.4,1-0.4,1.9c0,0.9,0.1,1.5,0.3,1.8c0.2,0.3,0.5,0.5,0.8,0.5
				c0.3,0,0.6-0.2,0.8-0.5c0.2-0.3,0.3-0.9,0.3-1.8c0-0.9-0.1-1.6-0.3-1.9C56.8,98.9,56.5,98.7,56.2,98.7z"/>
			<path class="st1" d="M87.5,43.6c-22.3,0-44.6,0-66.9,0c-0.1,0-0.1,0.1-0.1,0.2c-0.1,8.6,0,17.5,0,25.8
				c-0.1,8.5,1.2,16.1,3.9,22.2c2.7,6,7.1,10.3,12.2,13.9c5.1,3.6,11.5,5.6,17.5,8.6c5.9-3.1,12.3-5,17.4-8.7
				c5-3.6,9.6-7.8,12.3-13.9c2.7-6.1,3.9-13.5,3.9-22.2C87.6,61,87.6,52.1,87.5,43.6z M36,81.5c4.5-2.4,9.1-5,12.7-8.4
				c-2.4,0.6-4.2,0.6-6.2,0.6c0.3-0.5,0.9-0.8,1.3-1.3c3-2.8,6.4-5.5,8-9.7c-1.1,0.4-2.5,0.7-4,0.7c2.9-3.8,5.2-8.2,6.5-13.6
				c0.1,0,0.1,0,0.2,0c1.2,5.5,3.5,9.8,6.5,13.6c-1.3-0.1-2.4-0.1-3.9-0.7c0.1,0.6,0.4,1.2,0.7,1.8c1.4,2.7,3.8,4.8,5.9,6.8
				c0.9,0.8,1.8,1.5,2.6,2.4c-2.4,0.2-3.5,0-6.1-0.7c0.9,1,2,1.8,3,2.6c2.8,2.3,6.2,4,9.6,5.8c0.3,0.1,0.7,0.2,0.8,0.6
				c-2.8,0.4-6,0.2-9-0.8c-3.7-1.3-7.3-1.4-9.9,1.1c-2.9-2.3-5.8-2.4-10.5-1.1c-2.7,0.8-6.1,1.2-8.9,0.9
				C35.2,81.7,35.7,81.7,36,81.5z M46.3,103.9h-0.7v-4.4c-0.2,0.2-0.4,0.3-0.7,0.5c-0.3,0.2-0.5,0.3-0.7,0.4v-0.7
				c0.4-0.2,0.7-0.4,1-0.7c0.3-0.3,0.5-0.5,0.6-0.8h0.5V103.9z M52.5,102.6c-0.2,0.4-0.4,0.8-0.7,1c-0.3,0.2-0.7,0.3-1.1,0.3
				c-0.5,0-0.8-0.1-1.1-0.4c-0.3-0.2-0.5-0.6-0.5-1l0.7-0.1c0.1,0.3,0.2,0.6,0.3,0.7c0.1,0.2,0.4,0.2,0.6,0.2c0.2,0,0.4-0.1,0.6-0.2
				c0.2-0.1,0.3-0.2,0.4-0.4c0.1-0.2,0.2-0.4,0.3-0.7c0.1-0.3,0.1-0.6,0.1-0.9c0,0,0-0.1,0-0.2c-0.1,0.2-0.3,0.4-0.6,0.6
				c-0.2,0.1-0.5,0.2-0.8,0.2c-0.5,0-0.9-0.2-1.2-0.5c-0.3-0.4-0.5-0.8-0.5-1.4c0-0.6,0.2-1,0.5-1.4c0.3-0.3,0.8-0.5,1.3-0.5
				c0.4,0,0.7,0.1,1,0.3c0.3,0.2,0.5,0.5,0.7,0.9c0.1,0.4,0.2,0.9,0.2,1.6C52.7,101.6,52.6,102.2,52.5,102.6z M57.8,102.7
				c-0.1,0.4-0.3,0.7-0.6,0.9c-0.3,0.2-0.6,0.3-1,0.3c-0.5,0-1-0.2-1.3-0.6c-0.4-0.5-0.6-1.2-0.6-2.3c0-0.7,0.1-1.2,0.2-1.6
				c0.1-0.4,0.3-0.7,0.6-0.9c0.3-0.2,0.6-0.3,1-0.3c0.3,0,0.6,0.1,0.8,0.2c0.2,0.1,0.4,0.3,0.6,0.5c0.2,0.2,0.3,0.5,0.3,0.8
				c0.1,0.3,0.1,0.8,0.1,1.4C58,101.7,57.9,102.3,57.8,102.7z M63.3,103.9h-3.8c0-0.2,0-0.3,0.1-0.5c0.1-0.3,0.3-0.5,0.5-0.8
				c0.2-0.3,0.5-0.5,0.9-0.9c0.6-0.5,1-0.9,1.3-1.2c0.2-0.3,0.3-0.6,0.3-0.8c0-0.3-0.1-0.5-0.3-0.7c-0.2-0.2-0.5-0.3-0.8-0.3
				c-0.3,0-0.6,0.1-0.8,0.3c-0.2,0.2-0.3,0.5-0.3,0.8l-0.7-0.1c0.1-0.5,0.2-0.9,0.6-1.2c0.3-0.3,0.8-0.4,1.3-0.4
				c0.5,0,1,0.1,1.3,0.4c0.3,0.3,0.5,0.7,0.5,1.1c0,0.2,0,0.5-0.1,0.7c-0.1,0.2-0.3,0.5-0.5,0.7c-0.2,0.2-0.6,0.6-1.1,1
				c-0.4,0.3-0.7,0.6-0.8,0.7c-0.1,0.1-0.2,0.3-0.3,0.4h2.8V103.9z M57.6,88.1l0.2,1.5h-6.5l0.2-1.5H31.1l2.5-3.1
				c2.2-0.1,6.3-0.7,9.9-2c6.9-2.6,11.1,1,11.1,1c3.3-2.8,7.5-2.2,11.3-0.8c3.6,1.3,9.2,1.7,9.2,1.7l2.4,3.2H57.6z"/>
		</g>
	</g>
</g>
</svg>
